<?xml version="1.0" encoding="utf-8" ?>
<svg xmlns="http://www.w3.org/2000/svg" xmlns:xlink="http://www.w3.org/1999/xlink" width="1024" height="1024">
	<path fill="#4AC939" d="M707.196 651.269L707.904 651.041C709.242 651.541 710.572 652.076 711.94 652.489C707.604 664.689 706.321 676.716 705.073 689.491L704.64 689.984C700.233 695.096 701.769 699.54 693.926 700.414C695.458 688.056 700.155 660.763 707.196 651.269Z"/>
	<path fill="#0FB24B" d="M114.001 634.716L118.103 634.61C118.928 653.933 117.628 673.403 118.709 692.679C118.622 692.877 118.531 693.074 118.447 693.273C116.832 697.076 116.678 707.295 113.309 709.492C112.45 708.647 112.362 708.141 111.998 707.019L112.059 634.858L114.001 634.716Z"/>
	<path fill="#F7B41B" d="M283.075 587.399C294.57 591.601 303.523 605.069 308.504 615.666C313.259 625.781 317.974 640.822 313.967 651.863C313.172 654.052 312.091 655.692 310.329 657.208C306.431 640.009 304.15 623.617 296.248 607.428C293.597 601.997 283.904 590.294 283.075 587.399Z"/>
	<path fill="#E36D2D" d="M112.059 634.858C109.363 633.601 106.317 632.062 104.494 629.629C98.9332 622.206 101.066 602.973 102.502 594.454C103.789 586.825 106.01 579.447 112.625 574.764C111.982 587.929 110.019 623.755 114.001 634.716L112.059 634.858Z"/>
	<path fill="#F7B41B" d="M415.086 579.925C418.942 583.397 420.115 587.431 420.396 592.531C421.189 606.893 413.468 631.14 403.84 641.882C400.45 645.664 396.769 647.967 391.666 648.492L388.865 647.676C390.691 645.908 392.567 644.187 394.357 642.382C405.741 630.896 415.182 596.064 415.086 579.925Z"/>
	<path fill="#F7B41B" d="M343.796 570.377C349.063 572.287 352.021 576.096 354.308 581.067C360.925 595.445 363.037 620.012 357.291 635.021C355.564 639.534 353.102 643.257 348.679 645.432L347.076 644.986C346.215 641.818 349.244 636.41 350.083 633.289C353.589 620.254 352.756 596.252 349.244 583.161C348 578.524 346.137 574.557 343.796 570.377Z"/>
	<path fill="#F7B41B" d="M605.488 578.042C617.728 582.372 625.406 595.334 630.731 606.486C635.323 616.104 639.949 629.261 636.361 639.895C635.636 642.043 634.465 644.283 632.862 645.907C630.158 641.162 629.853 634.18 628.657 628.856Q626.935 621.02 624.063 613.529C621.045 605.682 617.595 597.169 613.183 590.007C610.588 585.793 607.079 582.925 605.488 578.042Z"/>
	<path fill="#F7B41B" d="M673.23 570.04C683.57 582.017 685.856 600.386 684.705 615.672C684.055 624.292 681.642 637.193 674.422 642.883C673.671 643.475 672.847 643.981 672.031 644.476L671.361 644.315L670.239 644.069C669.542 643.174 669.738 642.246 669.935 641.161C671.99 629.808 674.43 622.394 675.048 610.322C675.498 601.525 675.598 592.729 674.841 583.942C674.446 579.361 672.946 574.62 673.23 570.04Z"/>
	<path fill="#EF8928" d="M112.625 574.764C115.209 574.391 117 574.478 119.181 576.047C125.217 580.386 127.551 589.932 128.467 596.922C129.721 606.486 131.091 621.9 124.796 629.933C123.029 632.188 120.772 633.648 118.103 634.61L114.001 634.716C110.019 623.755 111.982 587.929 112.625 574.764Z"/>
	<path fill="#F8D134" d="M735.937 587.523C736.812 588.244 737.704 588.948 738.537 589.717C738.465 589.878 738.391 590.039 738.321 590.201C736.325 594.808 735.077 599.891 733.582 604.695C728.675 620.46 722.539 641.842 707.904 651.041L707.196 651.269C705.416 649.28 703.9 647.324 702.973 644.788C699.571 635.478 702.609 624.889 706.77 616.335C712.94 603.652 722.356 592.287 735.937 587.523Z"/>
	<path fill="#F8D134" d="M387.055 647.264C383.821 644.999 382.282 641.907 381.495 638.087C378.719 624.625 386.769 608.211 393.906 597.332C398.993 589.578 405.615 581.909 415.086 579.925C415.182 596.064 405.741 630.896 394.357 642.382C392.567 644.187 390.691 645.908 388.865 647.676L387.055 647.264Z"/>
	<path fill="#F8D134" d="M664.472 644.391C660.194 641.672 657.343 637.596 655.623 632.873C650.396 618.52 653.454 599.053 659.95 585.592C661.906 581.539 668.103 570.739 672.209 569.321L673.23 570.04C672.946 574.62 674.446 579.361 674.841 583.942C675.598 592.729 675.498 601.525 675.048 610.322C674.43 622.394 671.99 629.808 669.935 641.161C669.738 642.246 669.542 643.174 670.239 644.069L671.361 644.315C669.092 644.539 666.752 644.409 664.472 644.391Z"/>
	<path fill="#F8D134" d="M627.003 647.823C626.668 647.847 626.335 647.896 626 647.893C621.9 647.86 617.681 644.294 615.022 641.448C603.568 629.188 597.782 608.027 598.49 591.554C598.647 587.906 599.056 581.058 602.247 578.783C603.533 577.865 603.979 577.964 605.488 578.042C607.079 582.925 610.588 585.793 613.183 590.007C617.595 597.169 621.045 605.682 624.063 613.529Q626.935 621.02 628.657 628.856C629.853 634.18 630.158 641.162 632.862 645.907L632.603 646.23C630.801 646.541 628.473 646.699 627.003 647.823Z"/>
	<path fill="#F8D134" d="M342.1 645.613Q340.857 644.817 339.66 643.954C333.096 639.225 330.843 631.011 329.674 623.393C327.56 609.607 330.176 585.809 338.845 574.37C340.085 572.735 341.646 570.655 343.796 570.377C346.137 574.557 348 578.524 349.244 583.161C352.756 596.252 353.589 620.254 350.083 633.289C349.244 636.41 346.215 641.818 347.076 644.986L348.679 645.432C346.526 645.565 344.244 645.867 342.1 645.613Z"/>
	<path fill="#F8D134" d="M303.629 659.21C303.301 659.143 302.969 659.093 302.645 659.009C295.665 657.199 289.701 650.36 286.131 644.393C278.744 632.042 272.189 606.846 275.994 592.637C276.498 590.755 277.468 588.093 279.406 587.247C280.818 586.632 281.738 586.917 283.075 587.399C283.904 590.294 293.597 601.997 296.248 607.428C304.15 623.617 306.431 640.009 310.329 657.208C308.189 657.767 305.568 658.159 303.629 659.21Z"/>
	<path fill="#79CE2A" d="M364.382 741.541L364.363 741.487C365.004 740.107 366.454 738.824 367.367 737.551C369.71 734.283 371.867 730.845 374.077 727.483C374.988 727.364 375.356 728.928 376.431 729.433C378.974 727.757 381.37 723.912 383.506 721.568L383.481 795.974C377.258 796.059 370.909 796.378 364.698 796.056C360.684 796.086 356.563 795.916 352.564 796.2C352.235 779.439 352.499 762.625 352.492 745.858C356.44 745.661 361.015 743.485 364.382 741.541ZM352.492 745.858C352.499 762.625 352.235 779.439 352.564 796.2C356.563 795.916 360.684 796.086 364.698 796.056Q364.823 768.797 364.382 741.541C361.015 743.485 356.44 745.661 352.492 745.858Z"/>
	<path fill="#79CE2A" d="M339.957 745.345C344.286 746.285 348.341 745.264 352.492 745.858C352.499 762.625 352.235 779.439 352.564 796.2C348.367 796.767 343.758 796.368 339.526 796.219L339.957 745.345Z"/>
	<path fill="#79CE2A" d="M307.376 727.313C311.794 731.703 316.538 738.382 323.295 738.412C323.538 738.413 323.781 738.402 324.023 738.397C324.022 757.642 324.908 777.402 323.647 796.579C322.328 796.117 321.109 795.46 319.866 794.829C316.09 791.366 311.943 788.218 307.977 784.97L308.012 750.511C308.017 742.819 308.288 734.961 307.376 727.313Z"/>
	<path fill="#79CE2A" d="M839.199 333.482C837.008 323.392 840.076 312.284 845.115 303.506C859.399 278.62 886.733 268.791 912.903 261.767C917.012 260.665 930.019 256.662 933.408 258.611L933.443 260.253C925.976 265.597 920.399 273.672 913.512 279.756C902.588 289.407 851.728 329.337 839.199 333.482Z"/>
	<path fill="#79CE2A" d="M710.305 258.495C710.18 257.26 709.878 256.363 710.412 255.215C715.747 255.049 721.66 257.097 726.82 258.445C747.744 263.911 768.202 271.014 784.262 286.204C794.63 296.011 802.308 308.84 802.62 323.412C802.709 327.596 802.131 332.176 799.982 335.828C793.855 328.811 785.155 323.765 777.717 318.27Q767.633 310.726 758.116 302.479Q740.925 287.619 724.16 272.28C719.36 267.83 715.866 262.107 710.305 258.495Z"/>
	<path fill="#4AC939" d="M710.305 258.495C715.866 262.107 719.36 267.83 724.16 272.28Q740.925 287.619 758.116 302.479Q767.633 310.726 777.717 318.27C785.155 323.765 793.855 328.811 799.982 335.828L800.015 336.162C797.147 337.602 794.29 339.22 791.229 340.202C787.352 340.659 783.491 341.826 779.632 342.494C766.807 344.714 753.727 340.869 743.221 333.367C719.796 316.64 714.735 284.968 710.305 258.495Z"/>
	<path fill="#4AC939" d="M839.199 333.482C851.728 329.337 902.588 289.407 913.512 279.756C920.399 273.672 925.976 265.597 933.443 260.253C929.116 288.596 919.487 316.864 895.534 334.599C883.93 343.191 870.668 346.975 856.383 344.702C854.916 344.469 853.382 344.044 851.902 344.096C849.179 343.07 846.369 341.091 843.887 339.55C841.906 337.685 840.527 335.862 839.199 333.482Z"/>
	<path fill="#E36D2D" d="M883.733 562.913C885.366 558.189 887.586 553.909 892.14 551.387C896.342 549.06 902.86 548.357 907.419 549.942C916.062 552.948 915.135 559.566 918.36 566.154C922.811 567.468 927.279 562.217 931.862 561.596C934.991 561.171 937.57 562.187 939.973 564.141C943.422 566.945 946.188 570.641 946.592 575.194C947.004 579.833 944.851 584.474 941.869 587.914C935.853 594.854 924.917 599.08 915.908 599.586C908.38 600.397 901.068 600.041 893.533 600.097C884.053 599.467 873.428 595.566 867.022 588.314C863.455 584.276 860.976 579.415 861.382 573.905C861.608 570.828 862.889 567.998 865.287 566.01C870.543 561.651 877.42 562.192 883.733 562.913Z"/>
	<path fill="#0FB24B" d="M506.364 66.5026C506.708 67.3653 506.887 68.0218 506.889 68.963C506.907 76.3191 506.115 83.7156 506.092 91.1074L506.013 259.171C503.895 258.498 501.786 258.115 499.604 257.738C494.843 256.193 490.438 253.695 486.452 250.687C473.318 240.776 465.725 227.071 463.599 210.814C458.723 173.526 476.774 126.099 492.327 92.7855C496.472 83.9067 500.346 74.2772 506.364 66.5026Z"/>
	<path fill="#4AC939" d="M342.1 645.613C344.244 645.867 346.526 645.565 348.679 645.432C349.657 657.839 350.222 673.717 350.264 686.165C359.946 690.07 365.937 696.169 372.292 704.302C373.626 685.42 377.963 663.895 387.055 647.264L388.865 647.676L391.666 648.492C385.543 665.871 383.602 683.824 382.631 702.126C382.735 702.996 382.747 704.009 383.039 704.831C390.662 696.361 401.889 691.662 413.153 691.124C430.919 690.275 448.004 696.408 464.42 702.413C442.336 698.775 415.412 693.907 395.865 707.989C391.091 711.428 386.295 716.381 383.506 721.568C381.37 723.912 378.974 727.757 376.431 729.433C375.356 728.928 374.988 727.364 374.077 727.483C371.867 730.845 369.71 734.283 367.367 737.551C366.454 738.824 365.004 740.107 364.363 741.487L364.382 741.541C361.015 743.485 356.44 745.661 352.492 745.858C348.341 745.264 344.286 746.285 339.957 745.345C334.361 743.84 329.319 740.684 324.023 738.397C323.781 738.402 323.538 738.413 323.295 738.412C316.538 738.382 311.794 731.703 307.376 727.313C304.228 720.929 300.175 715.368 295.042 710.423C282.132 697.988 264.328 695.061 246.971 695.66C240.74 695.875 234.531 696.751 228.299 696.87C243.697 692.505 259.87 688.63 275.985 689.731C290.637 690.733 300.483 696.876 309.937 707.804C309.168 702.781 309.156 697.502 308.857 692.416C308.185 680.975 306.948 670.229 303.629 659.21C305.568 658.159 308.189 657.767 310.329 657.208C315.22 669.712 319.59 694.787 321.253 708.199C326.061 698.269 331.943 692.153 341.102 686.095C340.732 672.689 341.813 659.036 342.1 645.613ZM351.577 699.938C352.667 711.221 351.961 723.092 351.936 734.445C355.22 732.413 358.43 730.366 360.861 727.297C363.148 724.411 364.318 721.023 363.859 717.331C362.965 710.139 356.99 704.227 351.577 699.938ZM339.876 733.936L339.917 701.178C334.758 705.131 329.183 710.032 328.196 716.849C327.666 720.505 328.835 723.881 331.087 726.751C333.535 729.871 336.635 731.786 339.876 733.936Z"/>
	<path fill="#79CE2A" d="M383.039 704.831C382.933 705.019 382.83 705.209 382.72 705.395C380.342 709.426 379.032 714.324 376.457 718.116C375.782 717.519 375.918 717.808 375.676 717.007C374.303 712.472 377.195 703.743 379.504 699.62C380.21 698.359 380.559 697.665 381.964 697.246C382.924 698.539 382.64 700.561 382.631 702.126C382.735 702.996 382.747 704.009 383.039 704.831Z"/>
	<path fill="#79CE2A" d="M339.917 701.178C342.361 700.039 345.837 699.143 348.506 699.013C349.913 698.944 350.551 698.972 351.577 699.938C352.667 711.221 351.961 723.092 351.936 734.445C348.221 735.747 343.634 734.656 339.876 733.936L339.917 701.178Z"/>
	<path fill="#0FB24B" d="M336.863 226.847C340.741 230.036 343.344 235.909 346.726 239.786C353.457 247.5 361.131 254.659 368.529 261.743Q379.651 272.309 391.504 282.048C404.279 292.461 480.477 350.947 489.684 353.508C493.238 355.684 496.308 359.604 499.115 362.689C499.288 367.448 499.357 372.16 498.743 376.891C494.387 371.533 490.349 365.883 486.224 360.344C451.166 363.604 427.994 362.989 398.343 340.69C362.634 313.836 342.96 270.201 336.863 226.847Z"/>
	<path fill="#0FB24B" d="M341.363 428.875C341.586 429.063 341.81 429.248 342.03 429.439C344.994 432.007 347.518 435.773 350.065 438.782C354.2 443.67 358.751 448.382 363.613 452.547C373.859 461.322 384.956 469.037 395.8 477.034L435.397 506.752Q453.515 520.578 471.36 534.755C478.068 540.051 484.674 545.615 491.668 550.525L498.896 556.532C499.203 562.327 499.468 568.302 498.747 574.074C495.527 568.691 492.392 563.388 488.441 558.497C452.638 556.213 430.642 558.198 399.745 534.603C366.629 509.314 346.786 469.727 341.363 428.875Z"/>
	<path fill="#0FB24B" d="M677.209 223.769C677.912 231.476 675.703 239.944 673.99 247.456C667.812 274.547 659.43 297.807 641.466 319.487C621.693 343.349 594.776 359.049 563.715 361.764C553.594 362.649 542.775 362.109 532.658 361.073Q526.432 369.074 519.95 376.868Q520.001 370.475 520.208 364.086C522.961 359.529 526.352 354.32 530.43 350.841C538.96 348.314 547.877 340.855 555.265 335.828C588.454 313.248 616.934 292.254 644.505 262.686C651.672 255 658.302 246.95 664.853 238.738C668.709 233.905 672.511 228.338 676.908 224.055C677.007 223.958 677.108 223.864 677.209 223.769Z"/>
	<path fill="#79CE2A" d="M61.1084 633.787C79.848 647.362 93.9028 663.388 103.107 684.832C106.251 692.155 108.555 699.822 111.998 707.019C112.362 708.141 112.45 708.647 113.309 709.492C116.678 707.295 116.832 697.076 118.447 693.273C118.531 693.074 118.622 692.877 118.709 692.679C130.31 668.347 141.709 649.461 165.186 634.588C144.529 664.472 131.251 697.95 127.132 734.123C135.521 719.262 148.494 706.24 163.904 698.8C144.403 720.024 134.079 746.579 132.792 775.349L130.457 777.859C125.412 783.056 119.523 788.742 115.861 794.978L115.489 795.14C113.142 795.873 111.046 795.856 108.625 795.817L95.1366 796.019L91.1018 796.044C89.4593 765.265 80.4698 735.285 59.5949 712.037C77.5866 719.981 87.2829 731.316 98.6775 746.914C95.6658 706.964 83.4936 667.164 61.1084 633.787Z"/>
	<path fill="#0FB24B" d="M675.979 422.411C675.471 430.392 673.343 438.324 671.461 446.073C663.77 477.741 651.073 505.92 626.052 527.907C602.332 548.752 571.686 557.428 540.501 555.479Q537.978 555.324 535.478 554.948C530.599 561.502 525.631 568.026 520.232 574.165C519.585 569.909 519.213 562.467 521.186 558.514C523.352 555.107 527.12 552.054 529.754 548.855C539.203 540.254 549.674 532.456 559.599 524.38C586.005 502.893 613.066 481.913 638.827 459.674Q651.749 448.379 663.567 435.933C667.529 431.768 671.342 425.631 675.979 422.411Z"/>
	<path fill="#4AC939" d="M529.754 548.855Q529.429 548.019 529.167 547.162C523.736 529.336 527.553 509.072 536.087 492.906C552.232 462.319 582.923 442.049 615.373 432.058C624.065 429.382 670.246 419.399 675.979 422.411C671.342 425.631 667.529 431.768 663.567 435.933Q651.749 448.379 638.827 459.674C613.066 481.913 586.005 502.893 559.599 524.38C549.674 532.456 539.203 540.254 529.754 548.855Z"/>
	<path fill="#4AC939" d="M340.344 421.473C383.424 421.999 431.454 439.458 461.825 470.478C483.222 492.334 492.314 519.775 491.685 550.038C491.682 550.2 491.674 550.363 491.668 550.525C484.674 545.615 478.068 540.051 471.36 534.755Q453.515 520.578 435.397 506.752L395.8 477.034C384.956 469.037 373.859 461.322 363.613 452.547C358.751 448.382 354.2 443.67 350.065 438.782C347.518 435.773 344.994 432.007 342.03 429.439C341.81 429.248 341.586 429.063 341.363 428.875C340.886 426.387 340.536 424.002 340.344 421.473Z"/>
	<path fill="#4AC939" d="M506.364 66.5026L507.563 65.126C509.18 65.3578 510.069 66.8176 511.015 68.0924C516.19 75.0688 520.105 83.6947 524.168 91.3927C542.087 125.341 560.158 169.376 553.629 208.565C550.733 225.949 541.866 241.562 527.389 251.877C525.078 253.523 522.223 255.589 519.453 256.249C514.818 257.861 510.953 259.092 506.013 259.171L506.092 91.1074C506.115 83.7156 506.907 76.3191 506.889 68.963C506.887 68.0218 506.708 67.3653 506.364 66.5026Z"/>
	<path fill="#4AC939" d="M530.43 350.841Q530.117 348.763 529.907 346.672Q529.696 344.582 529.588 342.483Q529.48 340.385 529.475 338.283Q529.47 336.182 529.568 334.083Q529.666 331.984 529.867 329.892Q530.068 327.801 530.37 325.721Q530.673 323.642 531.078 321.58Q531.482 319.518 531.987 317.478C539.067 289.457 559.868 267.376 584.163 252.878C608.595 238.297 634.553 231.337 662.24 225.999C666.03 225.268 673.633 222.862 677.209 223.769C677.108 223.864 677.007 223.958 676.908 224.055C672.511 228.338 668.709 233.905 664.853 238.738C658.302 246.95 651.672 255 644.505 262.686C616.934 292.254 588.454 313.248 555.265 335.828C547.877 340.855 538.96 348.314 530.43 350.841Z"/>
	<path fill="#4AC939" d="M336.863 226.847L336.572 225.506C337.532 224.523 338.25 224.519 339.604 224.462C347.214 224.139 355.997 225.859 363.483 227.244C399.268 233.864 435.954 248.98 462.057 274.958C479.953 292.768 489.698 315.632 489.665 340.88C489.659 344.952 489.193 349.49 489.684 353.508C480.477 350.947 404.279 292.461 391.504 282.048Q379.651 272.309 368.529 261.743C361.131 254.659 353.457 247.5 346.726 239.786C343.344 235.909 340.741 230.036 336.863 226.847Z"/>
	<path fill="#87DBD4" d="M294.29 67.5911C301.036 67.2322 307.062 67.5527 313.313 70.3513C324.68 75.4406 329.61 84.247 333.859 95.428Q336.539 94.3744 339.353 93.7595Q342.167 93.1446 345.042 92.984C353.11 92.6135 360.492 95.4678 366.36 100.936C376.084 109.996 377.514 121.509 377.928 134.127C351.743 133.495 325.448 133.927 299.25 133.887L215.324 133.876C215.532 126.735 215.76 119.378 218.528 112.681Q218.838 111.941 219.185 111.217Q219.531 110.493 219.914 109.787Q220.296 109.081 220.712 108.395Q221.129 107.709 221.579 107.045Q222.03 106.38 222.512 105.739Q222.995 105.097 223.509 104.481Q224.023 103.864 224.567 103.274Q225.111 102.684 225.683 102.121Q226.256 101.559 226.856 101.025Q227.456 100.492 228.081 99.989Q228.707 99.4861 229.356 99.0148Q230.006 98.5435 230.678 98.1051Q231.351 97.6666 232.044 97.2621Q232.737 96.8576 233.45 96.4881Q234.162 96.1185 234.892 95.7847Q235.622 95.451 236.368 95.1539C245.334 91.5929 254.286 92.7066 262.965 96.4839C265.039 91.6931 267.077 86.8494 269.98 82.487C275.878 73.6258 284.07 69.6099 294.29 67.5911Z"/>
	<path fill="#7A3624" d="M198.053 746.434C204.774 746.012 211.262 746.459 217.947 746.473C252.759 751.832 279.835 764.174 307.977 784.97C311.943 788.218 316.09 791.366 319.866 794.829C308.35 795.501 296.792 793.972 285.405 796.395C256.693 802.506 233.402 819.768 202.459 814.759C182.755 811.57 165.397 802.784 146.431 797.31C136.591 794.469 124.569 798.256 115.861 794.978C119.523 788.742 125.412 783.056 130.457 777.859L132.792 775.349C153.318 758.754 171.958 750.41 198.053 746.434Z"/>
	<path fill="#4AC939" d="M664.472 644.391C666.752 644.409 669.092 644.539 671.361 644.315L672.031 644.476C672.847 658.889 672.691 673.428 672.863 687.865C678.731 688.5 683.717 690.277 687.497 695.045C690.191 698.442 691.542 702.397 693.835 705.97C693.669 704.115 693.823 702.269 693.926 700.414C701.769 699.54 700.233 695.096 704.64 689.984L705.073 689.491C705.057 694.284 704.993 699.081 705.034 703.873C724.352 693.256 746.108 686.457 768.048 692.953C772.27 694.203 776.237 696.048 780.228 697.884C759.3 694.093 732.98 695.692 715.02 708.079C712.429 709.866 707.619 713.508 706.584 716.498C707.089 735.147 706.887 753.872 706.92 772.53C706.934 780.374 706.597 788.405 707.015 796.226C701.695 795.08 695.394 795.83 689.959 796.046L673.747 796.045L663.442 796.01L648.041 796.01Q639.032 795.967 630.024 796.11C630.564 769.365 629.485 742.575 630.365 715.831C628.288 711.743 623.456 708.94 619.667 706.631C598.342 693.634 571.89 697.486 548.884 703.071C563.376 696.059 578.687 690.833 594.858 689.718C610.137 688.665 623.667 693.54 635.096 703.591C634.894 684.659 633.69 665.74 627.003 647.823C628.473 646.699 630.801 646.541 632.603 646.23C641.076 665.482 643.092 684.251 645.101 704.818C649.933 696.407 654.353 691.323 663.82 688.092C663.15 682.933 663.705 677.291 663.872 672.087C664.167 662.853 664.509 653.632 664.472 644.391ZM648 735.171Q647.779 765.591 648.041 796.01L663.442 796.01L663.617 747.049C657.448 743.991 652.737 740.139 648 735.171ZM689.999 738.398C685.119 742.755 679.971 745.702 673.873 748.038C674.007 763.921 674.7 780.213 673.747 796.045L689.959 796.046L689.999 738.398ZM673.462 695.162C673.451 708.77 673.195 722.424 673.457 736.027C676.408 734.324 678.852 732.403 681.411 730.159C684.171 726.967 686.513 723.799 688.407 720.013C685.114 710.574 682.153 701.05 673.462 695.162ZM662.363 697.395C656.573 703.349 652.62 710.037 649.704 717.799C652.088 721.027 654.569 724.153 657.105 727.262C659.027 729.633 660.91 732.072 662.936 734.353C662.963 729.501 663.881 699.604 662.536 697.566C662.491 697.499 662.42 697.452 662.363 697.395Z"/>
	<path fill="#79CE2A" d="M705.073 689.491C705.057 694.284 704.993 699.081 705.034 703.873C701.748 706.69 698.604 709.645 695.454 712.612C694.901 711.014 693.28 707.604 693.835 705.97C693.669 704.115 693.823 702.269 693.926 700.414C701.769 699.54 700.233 695.096 704.64 689.984L705.073 689.491Z"/>
	<path fill="#79CE2A" d="M706.584 716.498C707.089 735.147 706.887 753.872 706.92 772.53C706.934 780.374 706.597 788.405 707.015 796.226C701.695 795.08 695.394 795.83 689.959 796.046L689.999 738.398C692.912 733.15 702.347 722.079 706.584 716.498Z"/>
	<path fill="#79CE2A" d="M630.365 715.831C636.084 721.175 643.727 728.649 648 735.171Q647.779 765.591 648.041 796.01Q639.032 795.967 630.024 796.11C630.564 769.365 629.485 742.575 630.365 715.831Z"/>
	<path fill="#79CE2A" d="M506.013 259.171C510.953 259.092 514.818 257.861 519.453 256.249Q519.367 294.318 519.906 332.385C520.021 342.762 519.098 353.803 520.208 364.086Q520.001 370.475 519.95 376.868C518.417 382.493 519.434 406.756 519.439 414.171Q519.213 467.469 519.924 520.76C520.058 533.093 519.262 545.782 520.023 558.061L520.46 558.783L521.186 558.514C519.213 562.467 519.585 569.909 520.232 574.165C518.461 581.577 519.395 600.336 519.357 608.8L519.357 693.894L519.42 728.898C519.425 734.372 518.899 740.505 519.657 745.902C514.063 745.405 503.651 746.683 499.621 745.689L499.284 744.584C498.17 730.732 498.869 716.202 498.833 702.284L499.007 616.711C499.057 604.36 500.589 585.666 498.747 574.074C499.468 568.302 499.203 562.327 498.896 556.532C500.16 547.336 499.415 537.472 499.3 528.188Q499.054 508.151 499.058 488.113L499.335 414.024C499.393 405.054 500.782 384.458 498.743 376.891C499.357 372.16 499.288 367.448 499.115 362.689C500.734 357.531 499.571 337.399 499.571 330.755L499.604 257.738C501.786 258.115 503.895 258.498 506.013 259.171Z"/>
	<path fill="#79CE2A" d="M893.533 600.097C901.068 600.041 908.38 600.397 915.908 599.586C916.59 618.262 917.034 636.806 916.958 655.502C927.665 631.033 942.865 612.854 966.863 600.623C952.609 623.952 941.022 647.64 933.623 674.041C930.816 684.055 928.827 694.172 926.388 704.264C938.648 682.065 954.918 662.062 979.044 652.257C942.433 687.474 932.001 743.14 931.044 791.775Q930.991 793.919 931.055 796.062L925.646 796.018C921.952 796.013 918.298 795.939 914.612 795.687L910.44 791.637L904.293 785.58C899.516 781.592 894.699 777.742 889.683 774.059C887.445 772.57 884.949 771.164 883.012 769.296C883.83 767.553 883.267 764.398 883.128 762.502C880.585 727.938 867.304 691.171 846.129 663.729C842.146 658.567 838.123 653.575 833.146 649.322Q835.153 650.161 837.125 651.081Q839.096 652.001 841.028 653.001Q842.96 654 844.85 655.078Q846.74 656.156 848.584 657.31Q850.428 658.464 852.224 659.692Q854.019 660.92 855.763 662.221Q857.507 663.521 859.197 664.892Q860.886 666.262 862.518 667.701Q864.151 669.139 865.723 670.643Q867.295 672.146 868.804 673.713Q870.313 675.28 871.758 676.906Q873.202 678.533 874.579 680.218Q875.955 681.902 877.262 683.642Q878.569 685.381 879.804 687.172Q881.038 688.963 882.199 690.803Q883.359 692.643 884.444 694.529C887.964 700.74 890.57 707.469 893.937 713.785C891.783 704.969 890.492 695.929 888.291 687.095C880.253 654.84 866.795 625.988 845.901 600.069C868.263 609.804 880.873 619.089 893.453 640.508L893.533 600.097Z"/>
	<path fill="#F7B41B" d="M738.537 589.717L741.824 593.075C742.376 611.084 737.7 631.971 725.112 645.603C721.472 649.544 717.259 651.834 711.94 652.489C710.572 652.076 709.242 651.541 707.904 651.041C722.539 641.842 728.675 620.46 733.582 604.695C735.077 599.891 736.325 594.808 738.321 590.201C738.391 590.039 738.465 589.878 738.537 589.717Z"/>
	<path fill="#0FB24B" d="M198.428 325.636C196.101 324.353 192.308 324.251 189.67 323.51C183.383 321.746 176.996 319.081 171.296 315.893C154.4 306.444 142.227 291.321 137.057 272.633Q136.797 271.723 136.561 270.808Q136.324 269.892 136.111 268.97Q135.897 268.049 135.707 267.122Q135.517 266.196 135.351 265.265Q135.184 264.334 135.041 263.399Q134.898 262.464 134.778 261.526Q134.659 260.587 134.563 259.646Q134.467 258.705 134.395 257.762Q134.323 256.819 134.275 255.874Q134.227 254.93 134.202 253.984Q134.178 253.039 134.177 252.093Q134.177 251.147 134.2 250.201Q134.224 249.256 134.271 248.311Q134.318 247.367 134.389 246.423Q134.46 245.48 134.555 244.539Q134.65 243.598 134.768 242.66Q134.887 241.721 135.029 240.786Q135.171 239.851 135.337 238.92Q135.502 237.989 135.691 237.062Q135.88 236.135 136.093 235.213Q136.305 234.292 136.541 233.376Q136.777 232.46 137.035 231.55Q137.294 230.64 137.575 229.737Q137.857 228.834 138.161 227.938Q138.465 227.043 138.792 226.155Q139.119 225.267 139.468 224.388Q139.817 223.509 140.188 222.639Q140.559 221.769 140.952 220.909Q141.344 220.048 141.759 219.198Q142.173 218.348 142.609 217.508Q143.045 216.669 143.502 215.841Q143.958 215.012 144.436 214.196C154.339 197.101 169.813 184.977 188.96 180.015C207.773 175.14 229.328 177.532 246.112 187.581C263.111 197.758 274.7 213.864 279.509 233.015C284.557 253.117 280.678 273.509 269.932 291.076C257.946 310.672 239.674 319.799 218.037 325.03C212.125 326.21 204.386 326.711 198.428 325.636Z"/>
	<path fill="#FEFDFE" d="M255.229 239.961C256.381 240.074 257.56 240.182 258.678 240.496C261.229 241.213 263.484 242.998 264.644 245.4Q264.827 245.773 264.97 246.163Q265.112 246.553 265.212 246.956Q265.312 247.36 265.368 247.771Q265.424 248.183 265.435 248.598Q265.447 249.013 265.414 249.427Q265.381 249.841 265.304 250.249Q265.227 250.658 265.107 251.055Q264.986 251.453 264.824 251.835C263.61 254.73 261.549 255.795 258.802 257.013C257.515 257.045 256.263 257.053 255.013 256.697C252.776 256.061 250.781 254.538 249.704 252.461C248.593 250.32 248.521 247.863 249.336 245.608C250.423 242.599 252.502 241.355 255.229 239.961Z"/>
	<path fill="#FEFDFE" d="M249.149 215.49C251.097 215.285 253.096 215.417 254.904 216.209Q255.344 216.402 255.763 216.639Q256.182 216.875 256.575 217.152Q256.967 217.43 257.33 217.745Q257.693 218.061 258.022 218.411Q258.352 218.762 258.644 219.144Q258.936 219.526 259.188 219.935Q259.441 220.344 259.651 220.777Q259.861 221.209 260.026 221.661Q260.201 222.139 260.328 222.632Q260.455 223.125 260.532 223.629Q260.609 224.132 260.636 224.64Q260.662 225.149 260.638 225.657Q260.614 226.166 260.539 226.67Q260.463 227.173 260.339 227.667Q260.214 228.161 260.04 228.639Q259.866 229.118 259.646 229.577C258.133 232.69 255.816 233.897 252.662 234.965C251.534 234.966 250.525 234.81 249.424 234.548C246.623 233.88 244.143 232.52 242.651 229.966C241.343 227.728 241.093 224.96 241.876 222.499C243.087 218.695 245.78 217.161 249.149 215.49Z"/>
	<path fill="#FEFDFE" d="M225.276 195.52C228.993 195.417 232.373 195.556 235.657 197.58C239.551 199.981 240.774 203.577 241.742 207.766C241.52 208.689 241.291 209.612 241.005 210.517C239.51 215.233 236.639 217.193 232.487 219.393C230.299 219.764 228.194 219.97 226.003 219.477C222.66 218.726 219.696 216.803 217.981 213.793Q217.692 213.282 217.454 212.745Q217.215 212.208 217.03 211.65Q216.846 211.093 216.716 210.52Q216.586 209.947 216.513 209.364Q216.439 208.781 216.423 208.194Q216.406 207.607 216.447 207.021Q216.488 206.435 216.585 205.855Q216.683 205.276 216.836 204.709C218.155 200.004 221.265 197.78 225.276 195.52Z"/>
	<path fill="#87DBD4" d="M770.277 75.6211C777.035 74.8076 784.385 75.6379 790.815 77.8361C806.172 83.0852 813.893 93.9115 820.762 107.905C824.318 105.497 827.864 103.377 831.865 101.781C843.044 97.3215 856.424 96.6456 867.583 101.52C882.5 108.035 889.328 121.758 894.894 136.139C899.371 134.083 903.714 132.497 908.643 131.915C919.384 130.647 930.592 134.073 938.98 140.845C950.586 150.215 954.075 162.764 955.61 177.041C925.644 177.473 895.715 177.034 865.75 177.012L666.571 177.431Q666.513 171.91 667.395 166.46C669.608 153.478 676.915 142.31 687.648 134.758C700.866 125.457 714.446 124.206 729.994 126.884C730.583 114.93 731.918 104.114 738.937 94.0236C746.297 83.4438 757.842 77.8043 770.277 75.6211Z"/>
	<path fill="#0B7F3D" d="M791.229 340.202C794.29 339.22 797.147 337.602 800.015 336.162C810.921 352.567 817.259 369.618 822.084 388.583C827.948 371.733 834.573 354.841 843.887 339.55C846.369 341.091 849.179 343.07 851.902 344.096L851.746 344.504C847.154 356.256 840.882 366.983 837.034 379.128C825.209 416.45 831.488 457.503 830.406 496C832.933 491.956 834.667 487.13 836.835 482.852Q837.877 480.793 839.017 478.786Q840.157 476.78 841.394 474.831Q842.63 472.883 843.959 470.996Q845.289 469.11 846.708 467.29Q848.127 465.471 849.633 463.722Q851.139 461.973 852.728 460.3Q854.317 458.626 855.985 457.031Q857.653 455.437 859.397 453.925C880.388 435.569 907.337 425.864 934.452 421.044C940.853 419.907 948.028 418.58 954.507 418.99C954.422 428.091 952.356 437.101 950.085 445.883C943.285 472.171 932.44 496.914 912.807 516.275C888.636 540.111 863.124 545.436 830.395 545.12L830.533 749.384Q821.026 748.152 811.441 747.977C811.061 704.307 811.932 660.644 811.09 616.978C780.814 617.381 765.155 612.701 741.824 593.075L738.537 589.717C737.704 588.948 736.812 588.244 735.937 587.523L736.407 587.006L735.858 586.464L735.788 586.459C725.67 573.688 717.376 558.106 713.489 542.276C712.009 536.252 706.676 513.894 709.591 509.104L710.903 509.18C743.154 516.48 782.161 526.386 801.035 556.147C805.442 563.096 808.233 570.871 810.743 578.666C812.116 570.747 811.237 561.182 811.278 553.099Q811.485 526.019 811.351 498.939C794.609 501.423 777.706 501.078 761.842 494.589C739.723 485.541 724.176 465.706 715.154 444.163C711.639 435.772 701.708 400.242 705.183 391.691L705.937 391.82C739.641 397.524 779.298 410.809 799.811 439.912C805.159 447.498 808.225 455.8 810.813 464.629C812.168 457.784 811.219 447.107 811.136 439.819C810.84 413.928 808.924 387.291 800.519 362.598C797.891 354.877 794.143 347.77 791.229 340.202Z"/>
	<path fill="#0FB24B" d="M710.903 509.18C743.154 516.48 782.161 526.386 801.035 556.147C805.442 563.096 808.233 570.871 810.743 578.666C811.767 581.319 811.108 602.509 811.587 607.798C801.284 600.287 791.372 592.448 781.322 584.604C751.584 561.395 730.376 542.304 710.903 509.18Z"/>
	<path fill="#0FB24B" d="M705.937 391.82C739.641 397.524 779.298 410.809 799.811 439.912C805.159 447.498 808.225 455.8 810.813 464.629C813.065 472.995 811.932 485.55 811.092 494.131C800.652 487.076 790.85 479.25 780.854 471.594C768.66 462.255 756.165 453.095 745.037 442.473C734.043 431.978 724.435 419.611 715.733 407.184C712.468 402.522 707.911 397.146 705.937 391.82Z"/>
	<path fill="#0FB24B" d="M830.406 496C832.933 491.956 834.667 487.13 836.835 482.852Q837.877 480.793 839.017 478.786Q840.157 476.78 841.394 474.831Q842.63 472.883 843.959 470.996Q845.289 469.11 846.708 467.29Q848.127 465.471 849.633 463.722Q851.139 461.973 852.728 460.3Q854.317 458.626 855.985 457.031Q857.653 455.437 859.397 453.925C880.388 435.569 907.337 425.864 934.452 421.044C940.853 419.907 948.028 418.58 954.507 418.99C951.532 425.597 946.244 430.82 942.115 436.691C917.245 472.06 893.13 486.1 858.408 510.214C848.689 516.964 838.35 523.162 829.761 531.351C828.715 524.133 827.813 502.261 830.406 496Z"/>
	<path fill="#0B7F3D" d="M74.3633 310.224C75.1524 309.303 75.2457 309.197 76.5186 309.09C82.1087 308.619 89.4544 310.649 94.948 311.849C122.871 317.952 152.033 328.579 173.717 347.759C184.719 357.49 191.316 368.653 197.83 381.604C198.449 375.376 198.025 368.708 198.042 362.429Q197.979 344.03 198.428 325.636C204.386 326.711 212.125 326.21 218.037 325.03L217.969 392.586C217.922 405.307 217.045 418.367 218.206 431.033C219.295 428.635 220.464 426.33 221.837 424.079C239.094 395.802 272.405 383.886 302.964 376.442C308.256 375.153 320.062 371.575 324.601 374.336C325.094 375.637 324.891 376.125 324.658 377.471C323.062 411.141 310.909 450.569 285.666 473.718C267.01 490.827 242.27 494.109 217.938 494.037L217.947 746.473C211.262 746.459 204.774 746.012 198.053 746.434L198.058 574.643Q194.401 574.622 190.744 574.534C168.886 573.92 149.34 568.255 134.007 551.943C118.833 535.799 111.414 515.451 107.81 493.97C107.02 489.262 105.865 483.788 106.209 479.052C106.311 477.655 106.468 476.992 107.484 476.039L109.366 476.275C137.976 479.936 171.907 489.853 190.287 513.396Q194.672 519.036 197.843 525.439C198.818 516.461 198.165 506.682 198.219 497.618Q198.343 465.805 198.067 433.993C171.696 437.619 145.33 434.275 123.321 418.311C95.8416 398.38 82.7517 367.831 77.3895 335.201C76.0261 326.905 75.7074 318.502 74.3633 310.224Z"/>
	<path fill="#0FB24B" d="M109.366 476.275C137.976 479.936 171.907 489.853 190.287 513.396Q194.672 519.036 197.843 525.439C196.679 532.458 198.001 551.261 197.996 559.448C174.478 544.295 149.217 526.282 130.418 505.403C124.415 498.735 119.326 491.749 114.194 484.431C112.396 481.868 110.448 479.555 108.781 476.875L109.366 476.275Z"/>
	<path fill="#0FB24B" d="M218.206 431.033C219.295 428.635 220.464 426.33 221.837 424.079C239.094 395.802 272.405 383.886 302.964 376.442C308.256 375.153 320.062 371.575 324.601 374.336C325.094 375.637 324.891 376.125 324.658 377.471C323.026 377.943 322.051 379.34 320.984 380.582C315.555 386.902 310.927 393.862 305.764 400.395C300.042 407.636 293.676 414.616 287.331 421.318C267.785 441.962 242.038 464.765 218.24 480.206L218.54 447.746C218.577 442.695 219.354 435.909 218.206 431.033Z"/>
	<path fill="#0FB24B" d="M74.3633 310.224C75.1524 309.303 75.2457 309.197 76.5186 309.09C82.1087 308.619 89.4544 310.649 94.948 311.849C122.871 317.952 152.033 328.579 173.717 347.759C184.719 357.49 191.316 368.653 197.83 381.604C199.323 391.797 198.611 410.157 198.763 421.18C189.415 415.101 180.264 408.65 171.042 402.38C150.565 388.459 129.261 373.966 112.243 355.815Q98.8599 341.375 86.9443 325.702C83.6716 321.396 80.9016 316.541 77.4073 312.436C76.4727 311.338 75.6711 310.804 74.3633 310.224Z"/>
	<path fill="#A55533" d="M499.284 744.584L499.621 745.689C503.651 746.683 514.063 745.405 519.657 745.902C549.847 746.94 579.799 765.371 604.443 781.337C611.314 785.789 618.398 790.109 625.067 794.84C626.73 795.395 628.293 795.818 630.024 796.11Q639.032 795.967 648.041 796.01L663.442 796.01L673.747 796.045L689.959 796.046C695.394 795.83 701.695 795.08 707.015 796.226C708.601 796.067 709.622 795.582 711.021 794.837C739.7 769.348 772.033 750.011 811.441 747.977Q821.026 748.152 830.533 749.384C850.717 752.996 865.25 759.819 883.012 769.296C884.949 771.164 887.445 772.57 889.683 774.059C894.699 777.742 899.516 781.592 904.293 785.58L910.44 791.637L914.612 795.687C918.298 795.939 921.952 796.013 925.646 796.018L931.055 796.062C938.427 795.963 948.699 795.044 954.477 800.528C957.883 803.761 958.734 808.421 958.866 812.927C959.066 819.749 958.524 826.661 958.505 833.499L958.501 889.638L958.565 924.347C958.587 931.071 959.017 938.042 958.306 944.726C957.955 948.025 957.257 950.916 954.854 953.348C951.293 956.952 946.25 956.707 941.56 956.781C923.197 957.068 904.815 956.664 886.449 956.617L782.993 956.559L413.692 956.548L191.48 956.964L123.578 956.949C109.682 956.949 95.6918 957.313 81.8138 956.625C77.5693 956.415 71.667 956.022 68.5646 952.793C66.1089 950.237 65.3105 946.221 64.9327 942.83C64.4217 938.244 64.7976 933.362 64.8606 928.747Q65.037 916.994 65.0582 905.239L64.8678 818.468C64.8683 813.908 64.6777 802.874 68.3458 799.517C73.9266 794.411 84.0964 795.804 91.1018 796.044L95.1366 796.019L108.625 795.817C111.046 795.856 113.142 795.873 115.489 795.14L115.861 794.978C124.569 798.256 136.591 794.469 146.431 797.31C165.397 802.784 182.755 811.57 202.459 814.759C233.402 819.768 256.693 802.506 285.405 796.395C296.792 793.972 308.35 795.501 319.866 794.829C321.109 795.46 322.328 796.117 323.647 796.579L339.526 796.219C343.758 796.368 348.367 796.767 352.564 796.2C356.563 795.916 360.684 796.086 364.698 796.056C370.909 796.378 377.258 796.059 383.481 795.974C388.936 796.122 394.16 797.668 399.12 794.662C420.302 778.242 444.862 760.885 470.577 752.454Q478.82 749.751 487.312 747.982C491.037 747.231 495.628 747.106 499.083 745.606L499.284 744.584Z"/>
	<path fill="#7A3624" d="M177.362 897.195C185.234 896.267 204.052 895.535 210.333 899.713C212.219 900.967 213.574 902.762 213.881 905.039C214.233 907.652 213.181 911.211 211.494 913.225C209.204 915.96 205.423 916.068 202.146 916.319C193.235 916.648 175.547 918.927 168.307 913.727C166.676 912.555 165.509 910.925 165.268 908.898C164.952 906.244 166.119 903.501 167.772 901.482C170.539 898.103 173.243 897.501 177.362 897.195Z"/>
	<path fill="#7A3624" d="M429.503 848.572C436.304 848.146 456.001 847.348 461.446 849.549C465.843 851.325 467.26 854.129 469.092 858.201C468.02 860.661 466.806 863.357 465.019 865.383C463.585 867.009 462.298 867.873 460.125 867.997C450.92 867.892 431.613 870.106 424.042 866.165C422.032 865.119 420.413 863.52 419.825 861.285C419.129 858.643 419.974 855.831 421.403 853.591C423.453 850.376 425.905 849.382 429.503 848.572Z"/>
	<path fill="#7A3624" d="M911.384 848.778C918.122 848.489 935.944 847.01 940.886 851.199C942.715 852.75 943.718 855.124 943.876 857.487Q943.911 857.991 943.897 858.496Q943.882 859.001 943.818 859.503Q943.754 860.004 943.64 860.496Q943.527 860.989 943.366 861.468Q943.205 861.947 942.997 862.407Q942.79 862.868 942.538 863.306Q942.286 863.744 941.993 864.156Q941.699 864.567 941.366 864.947C937.894 868.841 931.748 868.112 926.98 868.254C919.304 868.323 906.774 869.806 900.032 866.125C896.792 864.357 895.79 862.015 894.748 858.603L894.9 857.953C895.999 853.402 897.469 851.567 901.432 849.12L911.384 848.778Z"/>
	<path fill="#7A3624" d="M847.004 897.704C852.613 896.943 867.817 896.891 873.331 897.854C875.627 898.254 877.895 898.952 879.764 900.392C881.439 901.683 882.621 903.483 882.841 905.611C883.1 908.113 882.022 910.613 880.383 912.46C876.889 916.398 872.053 916.517 867.201 916.697C860.138 916.94 841.173 917.686 835.567 913.973C833.617 912.681 832.111 910.772 831.768 908.411C831.452 906.238 832.228 904.029 833.645 902.382C837.068 898.402 842.163 898.136 847.004 897.704Z"/>
	<path fill="#7A3624" d="M591.982 850.548Q610.585 849.983 629.189 850.532C630.764 851.817 632.409 853.312 633.482 855.055C634.795 857.187 635.447 859.851 634.806 862.316C633.917 865.736 631.11 867.714 628.264 869.464C617.797 869.742 606.898 870.37 596.455 869.381C593.074 869.06 589.35 868.086 587.169 865.273C585.633 863.292 585.283 860.687 585.763 858.268C586.489 854.619 589.023 852.496 591.982 850.548Z"/>
	<path fill="#7A3624" d="M500.862 897.159C509.201 896.357 527.144 895.463 534.068 899.916C535.947 901.125 537.483 902.867 537.822 905.137C538.26 908.062 536.591 911.673 534.736 913.855C532.784 916.152 529.996 916.788 527.124 916.967C518.439 917.42 500.511 919.48 493.203 914.671C491.09 913.281 489.337 911.025 488.981 908.465C488.674 906.254 489.428 903.747 490.777 901.99C493.434 898.528 496.765 897.652 500.862 897.159Z"/>
	<path fill="#7A3624" d="M766.725 860.193C777.151 859.312 788.169 860.001 798.663 860.072C799.373 860.498 800.082 860.926 800.763 861.398C803.133 863.041 804.812 865.798 805.282 868.641C805.687 871.091 805.078 873.594 803.495 875.523C801.243 878.267 798.315 878.899 794.951 879.266C785.966 879.53 765.029 881.458 757.972 875.88C756.098 874.399 755.157 872.584 754.961 870.213C754.771 867.924 755.182 865.765 756.705 863.993C759.408 860.846 762.872 860.534 766.725 860.193Z"/>
	<path fill="#7A3624" d="M285.533 848.709C293.697 848.008 313.71 846.973 320.152 851.978C321.843 853.292 322.969 855.126 323.103 857.291C323.256 859.776 322.071 863.362 320.378 865.181C317.816 867.933 313.532 867.986 310.057 868.106C301.639 868.722 292.493 869.024 284.115 867.979C280.602 867.541 276.847 866.324 274.71 863.313C273.325 861.362 272.755 858.631 273.303 856.294C274.089 852.94 276.532 850.908 279.262 849.081L285.533 848.709Z"/>
	<path fill="#7A3624" d="M343.543 897.168C351.784 896.801 372.778 895.031 378.919 900.206C380.685 901.694 381.673 903.859 381.796 906.153C381.957 909.162 380.764 912.252 378.693 914.43C376.716 916.508 374.89 916.832 372.125 916.985C366.835 916.986 361.525 916.93 356.236 917.064C351.811 917.177 347.229 917.81 342.84 917.044C340.52 916.639 338.253 915.789 336.374 914.345C334.246 912.71 332.632 910.278 332.327 907.573Q332.277 907.167 332.269 906.759Q332.261 906.35 332.294 905.943Q332.327 905.536 332.402 905.134Q332.477 904.732 332.592 904.34Q332.708 903.948 332.862 903.57Q333.017 903.192 333.21 902.831Q333.402 902.471 333.63 902.132Q333.858 901.793 334.12 901.479C336.585 898.516 339.865 897.546 343.543 897.168Z"/>
	<path fill="#7A3624" d="M673.137 897.261C680.409 897.048 699.14 895.346 704.63 899.911C706.186 901.205 707.091 903.04 707.245 905.051C707.467 907.955 706.205 910.875 704.22 912.955C700.18 917.187 694.986 916.607 689.624 916.801C682.45 917.296 672.043 917.428 665.055 916.152C662.226 915.636 659.238 914.375 657.66 911.84C656.427 909.861 656.366 907.409 656.889 905.189C657.773 901.433 660.362 899.488 663.486 897.561L673.137 897.261Z"/>
	<path fill="#7A3624" d="M117.681 848.768C126.002 848.295 145.968 846.792 152.476 851.214C154.61 852.663 156.409 854.938 156.753 857.554C157.03 859.664 156.263 861.63 154.92 863.24C151.602 867.215 147.411 867.589 142.634 867.943C134.792 868.226 115.735 869.832 109.42 866.018Q109.003 865.768 108.615 865.477Q108.226 865.185 107.871 864.854Q107.515 864.523 107.197 864.156Q106.878 863.789 106.599 863.391Q106.321 862.993 106.086 862.568Q105.851 862.143 105.662 861.695Q105.473 861.248 105.331 860.783Q105.19 860.318 105.099 859.841C104.594 857.212 105.06 854.103 106.724 851.955C109.093 848.898 114.215 848.832 117.681 848.768Z"/>
	<path fill="#7A3624" d="M811.441 747.977Q821.026 748.152 830.533 749.384C850.717 752.996 865.25 759.819 883.012 769.296C884.949 771.164 887.445 772.57 889.683 774.059C894.699 777.742 899.516 781.592 904.293 785.58L910.44 791.637L914.612 795.687C903.835 796.871 893.1 794.465 882.388 797.11C861.979 802.148 850.243 812.802 826.907 814.884C808.091 816.563 790.767 811.193 773.556 804.219C764.034 800.36 754.419 796.218 743.976 795.862C737.93 795.657 714.423 797.709 711.021 794.837C739.7 769.348 772.033 750.011 811.441 747.977Z"/>
	<path fill="#7A3624" d="M499.284 744.584L499.621 745.689C503.651 746.683 514.063 745.405 519.657 745.902C549.847 746.94 579.799 765.371 604.443 781.337C611.314 785.789 618.398 790.109 625.067 794.84C619.307 798.271 597.551 794.685 588.885 796.439C574.836 799.283 560.809 809.075 547.462 814.454C499.74 833.686 482.026 803.934 441.208 796.523C429.553 794.407 407.584 798.262 399.12 794.662C420.302 778.242 444.862 760.885 470.577 752.454Q478.82 749.751 487.312 747.982C491.037 747.231 495.628 747.106 499.083 745.606L499.284 744.584Z"/>
</svg>
