<?xml version="1.0" encoding="utf-8" ?>
<svg xmlns="http://www.w3.org/2000/svg" xmlns:xlink="http://www.w3.org/1999/xlink" width="1024" height="1024">
	<path fill="#DC6D47" d="M604.981 684.29C614.624 684.271 636.872 681.432 643.712 688.543C644.919 689.797 645.718 691.303 646.066 693.006C647.33 699.198 646.998 719.577 646.559 726.671C646.369 729.748 645.923 733.575 643.476 735.723C640.112 738.676 635.497 738.938 631.258 739.399C623.76 736.889 594.738 738.734 584.763 738.415C591.881 737.503 599.772 738.129 606.948 738.222C607.01 721.857 608.623 699.99 604.981 684.29Z"/>
	<path fill="#014A2E" d="M550.522 584.345C559.011 568.709 564.925 552.665 576.462 538.747C588.221 524.561 603.672 516.251 622.094 514.701C658.938 511.6 710.608 525.043 744.125 540.672C749.846 543.34 757.07 546.11 761.874 550.198L761.847 550.898L759.995 552.407C740.704 555.668 721.333 556.178 701.872 557.808C657.803 561.498 614.019 566.857 571.812 580.669C564.726 582.988 554.374 585.242 548.469 589.411L543.775 588.097L544.535 585.127L550.522 584.345Z"/>
	<path fill="#047F47" d="M548.469 589.411C554.374 585.242 564.726 582.988 571.812 580.669C614.019 566.857 657.803 561.498 701.872 557.808C721.333 556.178 740.704 555.668 759.995 552.407C725.776 581.697 667.19 631.471 618.999 627.553C598.152 625.858 578.471 615.109 562.798 601.732C558.574 598.126 554.271 592.634 549.498 589.971C549.285 589.852 549.075 589.727 548.861 589.611C548.732 589.541 548.599 589.478 548.469 589.411Z"/>
	<path fill="#C8B687" d="M604.575 929.845L605.083 929.966C620.578 933.521 676.851 937.242 685.317 950.113C686.102 951.306 686.329 952.454 686.088 953.868C685.616 956.626 682.361 958.807 680.143 960.06C674.907 963.019 668.875 964.655 663.12 966.282C639.83 972.866 615.259 974.855 591.213 976.653Q569.348 978.185 547.442 978.919Q525.536 979.653 503.618 979.588Q481.699 979.524 459.798 978.661Q437.896 977.798 416.041 976.137C390.834 974.102 364.817 971.295 340.445 964.379C335.534 962.985 324.058 959.63 321.641 954.617C321.161 953.622 321.225 952.53 321.754 951.568C325.753 944.293 346.744 940.665 354.722 939.173Q376.359 935.144 398.184 932.309C398.613 938.636 398.545 946.338 402.243 951.731C404.281 954.703 406.918 956.086 410.387 956.608C419.019 957.905 428.064 957.166 436.774 957.136L478.777 957.156L547.366 957.458C561.289 957.567 575.542 958.251 589.424 957.419C592.208 957.253 595.72 956.216 597.925 954.453C603.819 949.742 603.859 936.791 604.575 929.845Z"/>
	<path fill="#01BF5E" d="M318.584 129.078C367.491 152.511 448.817 204.233 467.576 258.152C476.822 284.731 467.596 313.723 455.745 337.948C452.956 343.65 449.954 349.161 446.208 354.303C444.126 352.425 440.552 341.996 439.047 338.826C432.656 325.374 425.398 312.018 418.126 299.016C400.568 267.624 382.979 236.374 364.694 205.388C357.091 192.502 348.97 179.919 341.44 166.989C336.381 158.303 319.825 136.513 318.584 129.078Z"/>
	<path fill="#01BF5E" d="M498.282 260.588Q494.668 255.863 491.446 250.864Q488.224 245.864 485.415 240.621Q482.605 235.378 480.226 229.926Q477.848 224.474 475.915 218.849C468.573 197.586 467.678 174.139 477.806 153.623C497.732 113.262 556.424 79.3817 596.464 62.0234C608.31 56.8878 620.494 52.8397 632.701 48.6632C628.837 58.5457 611.984 76.6485 604.898 86.0992C587.963 108.688 571.077 131.424 555.57 155.022Q537.957 181.441 523.249 209.581Q516.677 222.195 510.85 235.17C507.628 242.218 503.317 254.964 498.282 260.588Z"/>
	<path fill="#EC8F52" d="M477.696 684.407L491.347 684.138L492.35 684.381C498.609 684.557 504.863 684.43 511.123 684.337L511.764 684.26C516.293 684.714 520.894 684.428 525.437 684.306L604.981 684.29C608.623 699.99 607.01 721.857 606.948 738.222C599.772 738.129 591.881 737.503 584.763 738.415L431.836 738.593C411.796 738.616 391.686 738.277 371.653 738.678C368.627 738.331 365.545 738.985 362.513 738.711C360.908 738.566 359.418 738.029 358.382 736.745C353.45 730.632 354.302 702 355.493 694.163C356.207 689.466 358.194 687.331 361.955 684.581C373.445 683.907 384.904 684.286 396.398 684.357L447.908 684.481C457.821 684.495 467.792 684.777 477.696 684.407Z"/>
	<path fill="#047F47" d="M353.845 508.671L354.645 508.843C361.618 510.283 369.216 510.166 376.32 511.195C388.748 512.994 399.883 517.563 411.446 522.158C417.687 521.525 424.113 519.867 429.778 517.154C436.702 532.054 458.537 574.473 459.443 588.523L460.16 590.43L459.27 590.892C451.265 597.934 443.145 604.641 433.589 609.497C414.095 619.404 390.108 621.481 369.298 614.662C335.143 603.471 301.783 569.214 277.751 543.53C273.426 538.908 264.569 530.836 261.896 525.497C262.624 524.471 263.633 524.411 264.799 524.023C288.117 514.73 328.714 507.97 353.845 508.671ZM353.845 508.671C328.714 507.97 288.117 514.73 264.799 524.023C270.091 527.221 278.291 527.787 284.292 529.266Q295.765 532.167 307.204 535.201Q325.858 540.193 344.284 545.969Q378.918 556.767 412.211 571.178Q423.571 575.908 434.832 580.87C442.634 584.392 450.836 589.158 459.27 590.892L460.16 590.43L459.443 588.523C458.537 574.473 436.702 532.054 429.778 517.154C424.113 519.867 417.687 521.525 411.446 522.158C399.883 517.563 388.748 512.994 376.32 511.195C369.216 510.166 361.618 510.283 354.645 508.843L353.845 508.671Z"/>
	<path fill="#014A2E" d="M353.845 508.671L354.645 508.843C361.618 510.283 369.216 510.166 376.32 511.195C388.748 512.994 399.883 517.563 411.446 522.158C417.687 521.525 424.113 519.867 429.778 517.154C436.702 532.054 458.537 574.473 459.443 588.523L460.16 590.43L459.27 590.892C450.836 589.158 442.634 584.392 434.832 580.87Q423.571 575.908 412.211 571.178Q378.918 556.767 344.284 545.969Q325.858 540.193 307.204 535.201Q295.765 532.167 284.292 529.266C278.291 527.787 270.091 527.221 264.799 524.023C288.117 514.73 328.714 507.97 353.845 508.671ZM429.778 517.154C424.113 519.867 417.687 521.525 411.446 522.158C429.465 532.39 442.761 549.013 450.937 567.835C453.887 574.627 455.995 581.993 459.443 588.523C458.537 574.473 436.702 532.054 429.778 517.154Z"/>
	<path fill="#047F47" d="M591.583 238.85C611.504 231.863 632.407 226.91 653.118 222.993C659.097 221.862 665.931 220.224 671.999 220.193L672.39 220.923L671.795 222.698C658.749 255.25 646.499 290.206 628.728 320.488Q622.693 330.653 615.755 340.225C613.126 343.791 610.062 347.212 607.673 350.931C604.167 352.958 602.352 356.982 599.513 358.635L599.161 358.858C595.187 361.428 591.826 364.803 587.551 366.922C565.487 377.855 535.823 375.653 512.322 370.712Q507.068 369.591 501.936 368.001C501.174 366.928 500.378 365.922 499.536 364.909L499.593 364.586C496.079 351.353 498.022 330.294 501.264 317.067C507.985 289.642 525.501 272.293 549.073 258.083C554.779 258.94 585.998 242.9 591.583 238.85Z"/>
	<path fill="#014A2E" d="M591.583 238.85C611.504 231.863 632.407 226.91 653.118 222.993C659.097 221.862 665.931 220.224 671.999 220.193L672.39 220.923L671.795 222.698C661.275 224.139 647.212 235.904 638.554 242.181Q613.919 259.787 590.706 279.231Q567.493 298.674 545.84 319.841Q531.437 334.026 517.394 348.567C512.975 353.165 508.715 358.691 503.898 362.77C502.566 363.898 501.372 364.835 499.593 364.586C496.079 351.353 498.022 330.294 501.264 317.067C507.985 289.642 525.501 272.293 549.073 258.083C554.779 258.94 585.998 242.9 591.583 238.85Z"/>
	<path fill="#029E3C" d="M353.845 508.671C314.218 477.426 295.247 445.455 275.126 399.855C271.052 390.622 264.537 377.853 263.386 367.89C263.224 366.496 263.254 366.375 264.072 365.316L264.616 365.405C277.048 367.34 289.963 367.133 302.498 368.76C347.126 374.551 401.991 389.928 430.08 427.78Q431.153 429.21 432.153 430.692Q433.153 432.173 434.079 433.703Q435.004 435.232 435.852 436.806Q436.701 438.38 437.47 439.993Q438.239 441.607 438.927 443.257Q439.615 444.907 440.22 446.589Q440.825 448.271 441.346 449.982Q441.867 451.692 442.302 453.426Q442.737 455.159 443.086 456.913Q443.434 458.666 443.695 460.435Q443.956 462.203 444.129 463.983Q444.302 465.762 444.387 467.548Q444.471 469.333 444.466 471.121Q444.462 472.909 444.368 474.694Q444.275 476.479 444.093 478.257Q443.911 480.036 443.641 481.803C442.016 492.683 438.344 502.832 433.605 512.716C444.121 525.582 451.371 541.058 457.701 556.313C474.882 597.717 484.113 640.13 491.347 684.138L477.696 684.407C477.436 675.091 475.983 665.49 474.585 656.287Q472.129 639.592 468.518 623.107Q464.907 606.623 460.16 590.43L459.443 588.523C458.537 574.473 436.702 532.054 429.778 517.154C424.113 519.867 417.687 521.525 411.446 522.158C399.883 517.563 388.748 512.994 376.32 511.195C369.216 510.166 361.618 510.283 354.645 508.843L353.845 508.671Z"/>
	<path fill="#01BF5E" d="M353.845 508.671C314.218 477.426 295.247 445.455 275.126 399.855C271.052 390.622 264.537 377.853 263.386 367.89C263.224 366.496 263.254 366.375 264.072 365.316C271.023 372.665 284.243 380.541 292.755 386.828Q320.027 407.006 346.513 428.205Q361.603 440.27 375.683 453.5Q389.763 466.73 402.743 481.04C412.569 492.03 421.444 504.057 431.436 514.838L429.778 517.154C424.113 519.867 417.687 521.525 411.446 522.158C399.883 517.563 388.748 512.994 376.32 511.195C369.216 510.166 361.618 510.283 354.645 508.843L353.845 508.671Z"/>
	<path fill="#029E3C" d="M632.701 48.6632C633.876 49.7321 633.652 52.3771 633.72 53.9713C634.242 66.2969 633.299 78.7992 632.653 91.1066C630.591 130.365 627.062 180.155 608.78 215.789C604.298 224.526 598.178 231.671 591.583 238.85C585.998 242.9 554.779 258.94 549.073 258.083C525.501 272.293 507.985 289.642 501.264 317.067C498.022 330.294 496.079 351.353 499.593 364.586L499.536 364.909C500.378 365.922 501.174 366.928 501.936 368.001C498.813 372.743 495.425 377.366 492.463 382.204C492.498 417.111 494.939 451.814 497.189 486.629L504.964 601.172L508.741 653.442C509.395 663.657 509.152 674.282 511.123 684.337C504.863 684.43 498.609 684.557 492.35 684.381C492.648 679.195 492.049 673.73 491.849 668.533L490.636 636.641L486.765 535.397Q485.913 516.267 485.538 497.121C485.346 485.117 486.162 471.827 483.627 460.094C481.389 449.734 477.256 439.561 473.705 429.589C464.744 404.431 454.668 379.937 444.395 355.297C417.752 359.14 390.031 356.629 367.853 340.204C333.951 315.097 319.436 267.679 313.592 227.671C309.361 198.709 308.007 165.19 313.774 136.369C314.228 134.097 314.308 130.047 315.648 128.25C317.023 128.046 317.394 128.478 318.584 129.078C319.825 136.513 336.381 158.303 341.44 166.989C348.97 179.919 357.091 192.502 364.694 205.388C382.979 236.374 400.568 267.624 418.126 299.016C425.398 312.018 432.656 325.374 439.047 338.826C440.552 341.996 444.126 352.425 446.208 354.303C450.281 360.666 453.687 367.742 457.056 374.505C466.781 394.029 474.724 413.962 483.154 434.039C481.95 420.681 481.869 406.967 481.882 393.561C481.915 359.743 484.306 326.797 490.024 293.425C491.837 282.845 493.657 270.332 498.282 260.588C503.317 254.964 507.628 242.218 510.85 235.17Q516.677 222.195 523.249 209.581Q537.957 181.441 555.57 155.022C571.077 131.424 587.963 108.688 604.898 86.0992C611.984 76.6485 628.837 58.5457 632.701 48.6632ZM502.367 264.598Q499.281 279.019 497.145 293.611Q495.009 308.203 493.832 322.904C492.617 339.557 492.667 356.131 492.562 372.806C494.742 370.164 496.994 367.198 499.536 364.909L499.593 364.586C496.079 351.353 498.022 330.294 501.264 317.067C507.985 289.642 525.501 272.293 549.073 258.083C541.446 258.775 533.987 260.464 526.447 261.734C518.556 263.063 510.341 264.024 502.367 264.598Z"/>
	<path fill="#029E3C" d="M607.673 350.931C611.598 348.559 615.423 344.368 618.92 341.308C622.983 337.754 627.226 334.529 631.604 331.375C656.733 313.269 684.197 301.275 713.656 292.118C720.234 290.073 758.401 279.441 763.155 281.939L763.062 282.864C760.158 333.461 734.718 425.064 695.703 459.853C678.224 475.439 653.953 482.854 630.753 481.428C619.558 480.741 608.97 478.103 599.542 471.899C593.983 481.92 587.673 491.522 581.953 501.456C568.972 524 550.812 560.055 544.535 585.127L543.775 588.097C535.764 611.01 530.757 636.18 527.764 660.231C526.767 668.234 526.315 676.291 525.437 684.306C520.894 684.428 516.293 684.714 511.764 684.26L511.123 684.337C509.152 674.282 509.395 663.657 508.741 653.442L504.964 601.172L497.189 486.629C494.939 451.814 492.498 417.111 492.463 382.204C495.425 377.366 498.813 372.743 501.936 368.001Q507.068 369.591 512.322 370.712C535.823 375.653 565.487 377.855 587.551 366.922C591.826 364.803 595.187 361.428 599.161 358.858L599.513 358.635C602.352 356.982 604.167 352.958 607.673 350.931ZM501.936 368.001C498.813 372.743 495.425 377.366 492.463 382.204C492.498 417.111 494.939 451.814 497.189 486.629L504.964 601.172L508.741 653.442C509.395 663.657 509.152 674.282 511.123 684.337L511.764 684.26C513.115 677.336 513.214 670.058 514.049 663.04Q516.144 646.436 519.826 630.111Q521.274 623.483 522.961 616.911Q524.648 610.339 526.572 603.833Q528.496 597.327 530.654 590.894Q532.812 584.462 535.201 578.112Q537.591 571.762 540.208 565.503Q542.826 559.243 545.669 553.083Q548.511 546.922 551.575 540.868Q554.638 534.815 557.919 528.876C562.652 520.358 567.958 512.259 573.05 503.963C580.361 492.051 587.617 479.464 597.628 469.595C586.462 455.069 579.027 444.765 576.224 426.005Q575.979 424.319 575.812 422.623Q575.645 420.927 575.555 419.225Q575.466 417.523 575.454 415.819Q575.442 414.115 575.508 412.412Q575.575 410.71 575.719 409.012Q575.863 407.314 576.084 405.624Q576.306 403.934 576.604 402.257Q576.903 400.579 577.278 398.917Q577.653 397.254 578.103 395.611Q578.554 393.967 579.079 392.346Q579.605 390.725 580.203 389.13Q580.802 387.534 581.474 385.968Q582.145 384.402 582.887 382.868Q583.629 381.334 584.44 379.835Q585.252 378.337 586.131 376.877Q587.01 375.417 587.955 373.999C591.459 368.629 595.692 363.776 599.513 358.635L599.161 358.858C595.187 361.428 591.826 364.803 587.551 366.922C565.487 377.855 535.823 375.653 512.322 370.712Q507.068 369.591 501.936 368.001Z"/>
	<path fill="#01BF5E" d="M607.673 350.931C611.598 348.559 615.423 344.368 618.92 341.308C622.983 337.754 627.226 334.529 631.604 331.375C656.733 313.269 684.197 301.275 713.656 292.118C720.234 290.073 758.401 279.441 763.155 281.939L763.062 282.864C757.732 285.644 753.163 291.455 748.622 295.5C704.079 335.183 664.31 381.673 627.636 428.642C621.898 435.992 616.197 443.466 610.869 451.119C606.628 457.21 602.943 464.381 597.628 469.595C586.462 455.069 579.027 444.765 576.224 426.005Q575.979 424.319 575.812 422.623Q575.645 420.927 575.555 419.225Q575.466 417.523 575.454 415.819Q575.442 414.115 575.508 412.412Q575.575 410.71 575.719 409.012Q575.863 407.314 576.084 405.624Q576.306 403.934 576.604 402.257Q576.903 400.579 577.278 398.917Q577.653 397.254 578.103 395.611Q578.554 393.967 579.079 392.346Q579.605 390.725 580.203 389.13Q580.802 387.534 581.474 385.968Q582.145 384.402 582.887 382.868Q583.629 381.334 584.44 379.835Q585.252 378.337 586.131 376.877Q587.01 375.417 587.955 373.999C591.459 368.629 595.692 363.776 599.513 358.635C602.352 356.982 604.167 352.958 607.673 350.931Z"/>
	<path fill="#C1433B" d="M584.763 738.415C594.738 738.734 623.76 736.889 631.258 739.399C629.645 746.683 629.402 754.184 627.738 761.489L617.95 832.487C613.552 864.941 609.385 897.451 604.575 929.845C603.859 936.791 603.819 949.742 597.925 954.453C595.72 956.216 592.208 957.253 589.424 957.419C575.542 958.251 561.289 957.567 547.366 957.458L478.777 957.156L436.774 957.136C428.064 957.166 419.019 957.905 410.387 956.608C406.918 956.086 404.281 954.703 402.243 951.731C398.545 946.338 398.613 938.636 398.184 932.309C394.365 913.371 392.48 892.863 390.003 873.684L383.998 829.746C381.045 806.983 378.324 784.112 374.723 761.443Q373.304 750.045 371.653 738.678C391.686 738.277 411.796 738.616 431.836 738.593L584.763 738.415Z"/>
	<path fill="#932116" d="M584.763 738.415C594.738 738.734 623.76 736.889 631.258 739.399C629.645 746.683 629.402 754.184 627.738 761.489L374.723 761.443Q373.304 750.045 371.653 738.678C391.686 738.277 411.796 738.616 431.836 738.593L584.763 738.415Z"/>
</svg>
