<?xml version="1.0" encoding="utf-8" ?>
<svg xmlns="http://www.w3.org/2000/svg" xmlns:xlink="http://www.w3.org/1999/xlink" width="1338" height="1338">
	<path fill="#1B695A" transform="matrix(1.30664 0 0 1.30664 -0.000488281 0)" d="M510.093 92.6997C524.965 91.0594 542.275 97.6791 554.071 106.376Q555.453 107.402 556.782 108.495Q558.112 109.589 559.385 110.746Q560.659 111.904 561.874 113.123Q563.089 114.342 564.243 115.619Q565.396 116.897 566.485 118.23Q567.574 119.563 568.595 120.948Q569.617 122.333 570.569 123.767Q571.521 125.201 572.401 126.681Q573.281 128.16 574.086 129.681Q574.892 131.202 575.622 132.761Q576.351 134.319 577.003 135.912Q577.654 137.506 578.227 139.129Q578.799 140.752 579.29 142.402Q579.781 144.051 580.191 145.723Q580.6 147.395 580.926 149.085Q581.252 150.775 581.494 152.479C584.248 171.717 579.746 191.241 567.939 206.788C554.941 223.905 536.505 232.266 515.637 235.075L515.611 296.229Q517.171 296.379 518.717 296.635Q520.263 296.891 521.789 297.252Q523.314 297.612 524.811 298.075Q526.308 298.538 527.771 299.102Q529.233 299.666 530.654 300.328Q532.074 300.989 533.447 301.746Q534.819 302.503 536.137 303.351Q537.455 304.199 538.712 305.135C551.843 314.786 556.314 327.8 558.777 343.286C584.12 342.895 609.492 343.14 634.839 343.038C655.421 342.955 676.039 342.461 696.617 342.745C696.468 320.02 696.864 297.258 696.978 274.531C686.44 274.701 669.593 277.297 660.565 271.38C658.183 269.818 657.21 265.338 656.761 262.692C655.027 252.466 656.353 241.148 656.35 230.795C656.347 219.878 655.244 208.563 656.509 197.713C656.897 194.381 657.716 189.787 659.852 187.167C662.287 184.182 668.977 183.645 672.661 183.487C681.552 183.107 690.547 183.675 699.454 183.595C709.318 183.507 720.588 182.055 730.288 183.781C733.136 184.287 735.796 185.154 737.922 187.187C742.335 191.407 742.282 197.497 742.428 203.161C742.716 214.34 742.381 225.561 742.438 236.746C742.482 245.631 743.573 255.955 741.924 264.633C741.505 266.835 740.098 269.013 738.514 270.569C732.198 276.768 712.436 274.969 703.642 274.912C703.303 297.555 703.632 320.265 703.739 342.912L703.991 342.91L801.177 342.647L827.635 342.59C834.549 342.576 841.823 342.217 848.651 343.464C854.733 344.575 860.194 347.124 864.573 351.551C874.309 361.394 873.607 374.088 873.496 386.922C881.457 387.867 889.095 389.648 896.02 393.849C906.214 400.033 913.34 410.738 916.059 422.256C918.743 433.625 916.416 446.191 910.185 456.01C904.277 465.32 894.258 472.639 883.427 474.932C871.712 477.412 859.196 474.749 849.263 468.175C839.356 461.618 832.15 451.586 829.786 439.884Q829.573 438.821 829.412 437.749Q829.252 436.676 829.145 435.598Q829.038 434.519 828.985 433.436Q828.931 432.353 828.932 431.269Q828.932 430.184 828.986 429.102Q829.04 428.019 829.147 426.94Q829.255 425.861 829.416 424.789Q829.576 423.717 829.79 422.654Q830.004 421.591 830.27 420.54Q830.536 419.489 830.854 418.452Q831.172 417.415 831.541 416.396Q831.91 415.376 832.328 414.376Q832.747 413.376 833.215 412.398Q833.683 411.42 834.199 410.467Q834.715 409.513 835.277 408.586Q835.839 407.659 836.447 406.761C843.942 395.593 854.021 390.543 866.892 388.014C866.88 377.655 867.954 365.549 860.344 357.357Q859.703 356.67 859.011 356.035Q858.318 355.399 857.579 354.819Q856.84 354.239 856.059 353.717Q855.277 353.195 854.458 352.735Q853.639 352.275 852.786 351.88Q851.934 351.484 851.054 351.155Q850.174 350.826 849.271 350.566Q848.368 350.306 847.448 350.116C838.401 348.29 819.514 349.575 809.737 349.602L740.568 349.645C728.312 349.668 715.845 350.284 703.627 349.658L703.691 429.908C719.03 430.826 732.694 435.502 744.623 445.361C760.434 458.429 768.916 477.267 770.745 497.505L844.68 497.077C854.965 497.066 865.648 497.788 873.239 505.632Q873.883 506.296 874.478 507.003Q875.073 507.711 875.616 508.459Q876.159 509.207 876.648 509.992Q877.136 510.777 877.568 511.595Q878 512.412 878.373 513.258Q878.745 514.104 879.057 514.975Q879.369 515.845 879.618 516.736Q879.867 517.626 880.052 518.532C881.921 527.339 880.645 537.345 880.603 546.329L880.567 594.205C893.574 595.35 905.42 598.973 916.28 606.339C932.348 617.239 942.768 633.681 946.25 652.764C949.542 670.805 944.998 690.148 934.486 705.126Q933.487 706.553 932.417 707.928Q931.347 709.303 930.21 710.623Q929.073 711.943 927.87 713.204Q926.668 714.466 925.405 715.665Q924.141 716.864 922.818 717.999Q921.496 719.133 920.119 720.2Q918.741 721.266 917.312 722.263Q915.882 723.259 914.405 724.183Q912.928 725.106 911.406 725.954Q909.884 726.802 908.321 727.573Q906.759 728.344 905.16 729.035Q903.56 729.727 901.929 730.337Q900.297 730.948 898.636 731.475Q896.976 732.003 895.291 732.447Q893.606 732.891 891.902 733.25Q890.197 733.609 888.476 733.882Q886.794 734.165 885.1 734.365Q883.407 734.565 881.705 734.681Q880.004 734.796 878.298 734.827Q876.593 734.859 874.888 734.806Q873.184 734.752 871.484 734.615Q869.784 734.477 868.093 734.256Q866.402 734.034 864.724 733.729Q863.046 733.424 861.385 733.037Q859.724 732.649 858.084 732.18Q856.445 731.71 854.83 731.16Q853.216 730.61 851.631 729.981Q850.046 729.351 848.494 728.644Q846.941 727.938 845.426 727.155Q843.911 726.372 842.437 725.515Q840.962 724.658 839.532 723.729Q838.102 722.8 836.719 721.801C816.748 707.24 809.941 690.078 806.279 666.421L578.892 666.729C578.701 669.61 578.76 672.511 578.751 675.397L679.501 675.476C694.198 675.514 718.37 674.301 731.938 676.8C736.798 677.695 741.012 680.002 744.532 683.47C748.033 686.92 751.036 691.669 752.141 696.489C754.909 708.558 753.259 722.185 753.227 734.501L753.367 786.402C763.053 786.209 788.156 783.894 795.619 789.598C798.309 791.654 799.132 794.671 799.511 797.898C800.932 810.006 799.646 822.957 799.664 835.164C799.679 844.632 800.83 861.066 799.468 869.79Q799.347 870.569 799.117 871.324Q798.887 872.078 798.552 872.792Q798.217 873.506 797.784 874.165Q797.352 874.825 796.83 875.416C793.607 879.123 789.678 879.617 784.999 879.835C774.134 880.343 763.276 879.736 752.413 879.938C741.762 880.135 730.686 881.437 720.078 880.233C716.806 879.861 712.183 878.987 709.791 876.605C708.199 875.019 706.977 872.773 706.583 870.561C705.075 862.077 706.224 849.387 706.313 840.369C706.433 828.249 706.13 816.089 706.411 803.98C706.524 799.109 706.654 793.192 710.578 789.7C717.193 783.813 737.569 786.044 746.311 786.558C746.71 769.402 746.408 752.183 746.462 735.019C746.496 723.94 747.825 711.388 745.742 700.537C744.884 696.069 743.195 692.257 739.96 688.971Q739.411 688.403 738.819 687.88Q738.226 687.357 737.594 686.883Q736.962 686.408 736.294 685.986Q735.626 685.564 734.927 685.196Q734.228 684.828 733.501 684.517Q732.775 684.205 732.026 683.953Q731.277 683.701 730.511 683.508Q729.744 683.316 728.965 683.186C722.207 682.047 715.055 682.437 708.222 682.437L679.251 682.459L577.401 682.45C574.423 693.786 569.277 704.646 561.289 713.325C549.745 725.87 532.012 733.911 514.987 734.581L514.986 799.437C533.041 801.114 548.364 807.185 561.311 820.235C573.682 832.705 579.742 848.813 579.661 866.276C579.574 885.014 572.787 903.011 559.342 916.273C545.791 929.641 528.584 935.617 509.742 935.482Q508.485 935.465 507.23 935.401Q505.975 935.337 504.724 935.225Q503.472 935.113 502.225 934.954Q500.979 934.795 499.739 934.589Q498.499 934.383 497.268 934.13Q496.037 933.877 494.817 933.577Q493.596 933.278 492.388 932.933Q491.18 932.587 489.985 932.196Q488.791 931.806 487.612 931.37Q486.433 930.934 485.272 930.454Q484.111 929.974 482.968 929.45Q481.826 928.927 480.704 928.36Q479.582 927.793 478.483 927.185Q477.383 926.576 476.308 925.926Q475.232 925.276 474.182 924.586Q473.131 923.896 472.108 923.167Q470.718 922.187 469.379 921.138Q468.039 920.09 466.753 918.977Q465.467 917.864 464.238 916.688Q463.009 915.512 461.84 914.277Q460.67 913.042 459.564 911.75Q458.457 910.459 457.416 909.114Q456.375 907.769 455.401 906.374Q454.428 904.979 453.525 903.537Q452.622 902.096 451.792 900.612Q450.962 899.127 450.206 897.603Q449.451 896.08 448.771 894.52Q448.092 892.961 447.491 891.37Q446.89 889.779 446.369 888.16Q445.847 886.541 445.407 884.898Q444.966 883.255 444.608 881.592Q444.25 879.929 443.974 878.251Q443.717 876.547 443.545 874.833Q443.373 873.119 443.285 871.399Q443.197 869.678 443.194 867.956Q443.191 866.233 443.273 864.512Q443.355 862.792 443.522 861.077Q443.688 859.362 443.939 857.658Q444.19 855.953 444.524 854.263Q444.858 852.573 445.275 850.902Q445.693 849.231 446.192 847.582Q446.691 845.933 447.27 844.311Q447.85 842.688 448.508 841.096Q449.167 839.505 449.904 837.947Q450.64 836.39 451.452 834.871Q452.264 833.351 453.15 831.874Q454.036 830.396 454.993 828.964Q455.951 827.532 456.978 826.149C469.662 809.033 486.974 802.567 507.366 799.568C507.076 792.107 507.429 784.509 507.467 777.038L507.547 734.582C497.427 733.687 488.055 731.321 479.106 726.402C461.565 716.761 452.716 701.148 447.196 682.504L347.921 682.954L320.775 682.882C313.689 682.832 306.501 682.376 299.477 683.499C293.88 684.393 289.239 686.468 285.017 690.257Q284.178 691.012 283.396 691.825Q282.614 692.639 281.894 693.508Q281.174 694.376 280.519 695.295Q279.864 696.214 279.277 697.179Q278.691 698.143 278.177 699.147Q277.663 700.152 277.223 701.191Q276.784 702.23 276.421 703.299Q276.059 704.368 275.775 705.46C273.476 714.602 274.59 725.184 274.68 734.573C274.844 751.639 275.658 770.421 274.7 787.316C282.643 787.31 304.703 785.131 310.553 790.501C314.46 794.088 314.981 799.032 315.275 804.014C315.955 815.555 315.457 827.36 315.477 838.93C315.492 847.864 316.276 857.263 315.139 866.108C314.719 869.381 313.762 874.067 311.447 876.464C307.583 880.467 301.163 880.304 296.015 880.439C285.71 880.708 275.368 880.389 265.056 880.466C256.289 880.531 246.25 881.55 237.643 879.972C234.901 879.469 232.215 878.199 230.245 876.196C227.963 873.875 227.159 870.51 226.69 867.388C225.628 860.311 226.309 852.644 226.348 845.5L226.321 811.165C226.346 804.758 226.009 795.765 231.081 791.041C237.544 785.021 258.526 787.236 267.521 787.395C267.739 764.369 267.179 741.315 267.601 718.295C267.82 706.308 269.67 695.007 278.721 686.439C283.317 682.087 289.691 678.361 295.916 677.037C309.628 674.12 338.377 675.648 353.607 675.672C384.425 675.72 415.319 675.283 446.127 675.886C446.047 672.74 445.817 669.638 445.534 666.504L219.615 666.996C217.996 681.859 214.253 694.997 205.15 707.116Q204.078 708.552 202.937 709.933Q201.795 711.314 200.585 712.636Q199.376 713.959 198.102 715.219Q196.828 716.479 195.492 717.674Q194.157 718.869 192.764 719.995Q191.37 721.122 189.922 722.178Q188.474 723.234 186.975 724.216Q185.477 725.198 183.931 726.104Q182.384 727.01 180.795 727.837Q179.206 728.665 177.577 729.412Q175.948 730.159 174.284 730.824Q172.62 731.489 170.925 732.07Q169.23 732.651 167.508 733.146Q165.786 733.642 164.041 734.051Q162.297 734.46 160.534 734.781Q158.771 735.102 156.994 735.335Q155.276 735.577 153.547 735.733Q151.819 735.889 150.085 735.958Q148.35 736.027 146.615 736.008Q144.88 735.99 143.147 735.884Q141.415 735.778 139.69 735.585Q137.966 735.393 136.253 735.114Q134.54 734.835 132.843 734.47Q131.147 734.105 129.47 733.655Q127.794 733.206 126.143 732.672Q124.491 732.139 122.869 731.524Q121.246 730.908 119.656 730.212Q118.067 729.515 116.514 728.74Q114.962 727.964 113.45 727.112Q111.938 726.259 110.471 725.332Q109.004 724.405 107.586 723.405Q106.167 722.405 104.801 721.335Q103.361 720.233 101.977 719.061Q100.594 717.888 99.271 716.648Q97.9481 715.407 96.6892 714.102Q95.4302 712.796 94.2384 711.43Q93.0465 710.063 91.9246 708.638Q90.8028 707.213 89.7539 705.734Q88.7049 704.254 87.7315 702.724Q86.758 701.194 85.8626 699.617Q84.9671 698.04 84.1519 696.42Q83.3367 694.8 82.6037 693.142Q81.8708 691.483 81.2219 689.789Q80.5731 688.096 80.01 686.372Q79.4469 684.648 78.971 682.898Q78.4951 681.148 78.1076 679.377Q77.7201 677.605 77.4219 675.816Q77.1237 674.027 76.9156 672.226Q76.698 670.511 76.5665 668.787Q76.4349 667.063 76.3898 665.335Q76.3446 663.606 76.386 661.878Q76.4274 660.15 76.5552 658.425Q76.683 656.701 76.8969 654.985Q77.1108 653.27 77.4102 651.567Q77.7097 649.864 78.0939 648.179Q78.4782 646.493 78.9463 644.828Q79.4144 643.164 79.9652 641.525Q80.5159 639.886 81.148 638.277Q81.7801 636.668 82.4919 635.092Q83.2036 633.517 83.9933 631.979Q84.7831 630.441 85.6487 628.944Q86.5144 627.447 87.4538 625.996Q88.3933 624.545 89.4042 623.142Q90.415 621.739 91.4948 620.389C105.329 602.81 122.871 595.881 144.475 593.407L144.352 547.187C144.293 536.797 143.014 524.92 145.255 514.803C146.131 510.848 148.325 507.271 151.127 504.381C154.544 500.858 158.65 498.662 163.458 497.704C172.041 495.992 181.954 497.352 190.734 497.328L254.825 497.096C256.349 480.399 261.063 465.919 272.496 453.323C285.606 438.88 303.019 430.836 322.463 429.928C322.222 403.285 322.554 376.605 322.566 349.958L224.296 350.491Q211.58 350.531 198.865 350.412C192.032 350.338 184.653 349.736 177.907 350.879Q177.035 351.019 176.178 351.227Q175.32 351.436 174.481 351.712Q173.643 351.987 172.828 352.329Q172.014 352.67 171.23 353.075Q170.445 353.48 169.696 353.946Q168.946 354.412 168.235 354.936Q167.525 355.459 166.858 356.038Q166.191 356.616 165.572 357.246C157.481 365.361 158.214 377.125 158.368 387.68C166.26 388.951 173.344 391.053 179.889 395.807C189.157 402.538 195.559 413.787 197.286 425.049C199.045 436.526 196.341 448.92 189.37 458.311Q188.727 459.186 188.041 460.028Q187.355 460.87 186.628 461.676Q185.9 462.482 185.132 463.25Q184.365 464.018 183.559 464.746Q182.754 465.474 181.913 466.161Q181.071 466.847 180.196 467.49Q179.321 468.133 178.415 468.731Q177.508 469.329 176.573 469.88Q175.637 470.431 174.675 470.935Q173.713 471.438 172.727 471.892Q171.74 472.345 170.732 472.749Q169.724 473.152 168.696 473.504Q167.669 473.856 166.625 474.155Q165.582 474.454 164.524 474.7Q163.466 474.947 162.398 475.139Q161.329 475.331 160.252 475.469C148.292 477.12 136.156 474.565 126.485 467.199Q125.626 466.551 124.801 465.861Q123.975 465.171 123.185 464.44Q122.396 463.71 121.643 462.941Q120.891 462.172 120.178 461.366Q119.465 460.56 118.794 459.72Q118.122 458.879 117.493 458.006Q116.864 457.133 116.28 456.23Q115.696 455.327 115.157 454.395Q114.619 453.464 114.128 452.507Q113.637 451.549 113.194 450.569Q112.751 449.588 112.358 448.587Q111.965 447.585 111.623 446.565Q111.28 445.545 110.989 444.51Q110.698 443.474 110.46 442.425Q110.221 441.376 110.035 440.316Q109.849 439.257 109.716 438.189C108.159 426.008 111.129 414.356 118.768 404.683C127.147 394.073 138.397 389.257 151.563 387.725L151.512 380.258C151.5 369.845 153.193 359.579 160.949 351.962C165.29 347.698 170.793 345.035 176.751 343.92C190.152 341.412 210.51 343.052 224.657 343.049L322.51 343.014Q322.745 308.521 322.535 274.027C312.968 273.945 292.59 277.131 285.354 270.774C282.117 267.931 281.458 263.845 281.203 259.782C280.497 248.57 281.24 237.075 281.279 225.83C281.316 215.254 280.285 201.89 281.99 191.607C282.347 189.453 283.222 187.664 284.715 186.068C286.681 183.969 288.948 183.114 291.749 182.623C300.548 181.08 310.844 182.05 319.835 182.099C330.661 182.159 341.475 181.873 352.297 181.885C356.665 181.89 362.521 182.258 365.693 185.62C367.325 187.351 368.53 189.558 368.941 191.912C370.233 199.322 369.445 207.754 369.438 215.314Q369.389 234.166 369.536 253.017C369.526 258.951 370 266.373 365.251 270.785C359.144 276.458 337.951 274.492 329.493 274.402L329.481 343.031C374.907 342.89 420.397 341.97 465.817 342.755C466.207 333.403 468.877 324.291 474.095 316.481C482.23 304.305 494.354 298.828 508.303 296.091C507.584 275.938 508.095 255.476 508.313 235.301C493.437 233.958 478.475 228.613 466.792 219.184Q465.462 218.127 464.186 217.006Q462.911 215.884 461.693 214.7Q460.474 213.517 459.316 212.274Q458.158 211.031 457.064 209.732Q455.969 208.433 454.94 207.082Q453.911 205.73 452.951 204.329Q451.991 202.928 451.101 201.481Q450.212 200.034 449.395 198.544Q448.579 197.055 447.837 195.526Q447.096 193.998 446.431 192.435Q445.767 190.872 445.181 189.277Q444.595 187.683 444.089 186.061Q443.583 184.44 443.158 182.795Q442.733 181.15 442.391 179.487Q442.048 177.823 441.789 176.144Q441.53 174.466 441.354 172.776Q441.151 170.99 441.036 169.196Q440.922 167.401 440.896 165.604Q440.871 163.806 440.936 162.009Q441 160.213 441.153 158.422Q441.307 156.63 441.549 154.849Q441.792 153.068 442.122 151.3Q442.453 149.533 442.871 147.785Q443.289 146.036 443.793 144.311Q444.298 142.585 444.888 140.887Q445.477 139.188 446.151 137.521Q446.824 135.854 447.579 134.223Q448.335 132.592 449.17 131Q450.006 129.408 450.92 127.859Q451.833 126.311 452.823 124.81Q453.812 123.309 454.875 121.859Q455.938 120.409 457.072 119.014C470.62 102.582 489.215 94.6575 510.093 92.6997ZM607.229 349.758L558.106 349.959C554.948 363.315 548.433 375.316 536.507 382.769C529.963 386.859 522.854 388.539 515.328 389.801Q515.181 417.917 515.536 446.031C525.003 445.775 547.129 443.511 553.924 449.921C555.529 451.434 556.708 453.744 557.183 455.886C558.877 463.509 557.895 473.207 557.882 481.032L557.952 516.218C557.914 522.589 558.575 529.643 553.658 534.486C546.998 541.046 524.079 538.696 515.122 538.518L515.075 602.272C533.975 603.903 550.972 611.045 563.331 625.847C571.101 635.154 575.884 646.648 578.198 658.48L629.708 658.395C651.915 658.181 674.274 657.545 696.469 658.129L696.506 572.085C674.983 569.731 657.744 561.813 643.998 544.595C631.828 529.35 626.921 510.957 629.246 491.63C631.514 472.776 641.123 456.163 656.059 444.492C668.388 434.857 681.664 431.297 697.018 429.958L697.277 349.655Q652.253 349.455 607.229 349.758ZM401.267 350.25L329.406 350.473L329.511 429.398C350.842 431.72 368.136 438.197 381.925 455.504Q383.047 456.93 384.097 458.409Q385.148 459.889 386.123 461.419Q387.099 462.949 387.998 464.525Q388.897 466.101 389.716 467.72Q390.536 469.338 391.275 470.995Q392.014 472.653 392.669 474.345Q393.325 476.036 393.896 477.758Q394.468 479.481 394.953 481.229Q395.439 482.977 395.837 484.747Q396.235 486.517 396.545 488.305Q396.856 490.093 397.077 491.894Q397.299 493.695 397.431 495.504Q397.563 497.314 397.605 499.128Q397.647 500.942 397.6 502.755Q397.553 504.569 397.416 506.379Q397.278 508.188 397.052 509.988Q396.843 511.781 396.545 513.561Q396.247 515.341 395.862 517.104Q395.476 518.867 395.004 520.609Q394.531 522.351 393.974 524.068Q393.416 525.784 392.773 527.471Q392.131 529.158 391.406 530.811Q390.681 532.464 389.876 534.078Q389.07 535.693 388.185 537.267Q387.3 538.84 386.339 540.367Q385.377 541.895 384.342 543.373Q383.306 544.851 382.198 546.276Q381.09 547.701 379.913 549.069Q378.736 550.437 377.493 551.746Q376.25 553.054 374.943 554.299Q373.637 555.545 372.271 556.724Q370.904 557.903 369.481 559.013C357.55 568.2 344.307 572.067 329.533 573.553L329.618 658.44L408.75 658.342C421.353 658.376 434.039 658.095 446.631 658.471C450.929 639.116 460.905 623.104 477.844 612.394C487.223 606.463 497.066 604.189 507.822 602.108C507.182 594.677 507.616 586.93 507.668 579.467L508.02 538.466C500.87 538.507 474.841 540.274 470.205 535.313C468.499 533.487 467.891 529.783 467.62 527.403C466.483 517.409 467.472 505.798 467.5 495.657C467.534 483.04 466.653 469.882 467.843 457.337C468.149 454.112 469.114 451.283 471.661 449.121C477.517 444.151 499.702 445.538 507.622 446.024L507.515 389.229C493.49 386.56 482.139 381.387 473.935 369.191C469.991 363.328 467.82 356.825 466.127 350.021L401.267 350.25ZM167.076 504.638C162.195 505.426 157.672 506.638 154.673 510.933C152.639 513.844 151.912 517.529 151.514 521.002C150.547 529.428 151.388 538.476 151.448 546.961L151.513 593.401C173.962 597.058 192.23 604.061 205.998 623.241C213.734 634.018 217.12 645.576 219.134 658.503L307.75 658.469L322.48 658.481L322.513 573.252Q320.782 573.169 319.058 573.003Q317.333 572.836 315.619 572.585Q313.905 572.335 312.204 572.001Q310.504 571.667 308.822 571.251Q307.141 570.835 305.481 570.337Q303.821 569.839 302.188 569.262Q300.555 568.684 298.951 568.027Q297.348 567.37 295.779 566.636Q294.209 565.902 292.678 565.092Q291.146 564.282 289.655 563.399Q288.165 562.516 286.719 561.561Q285.274 560.606 283.876 559.582Q282.479 558.558 281.133 557.467Q279.787 556.376 278.496 555.22Q277.204 554.065 275.971 552.848Q274.738 551.631 273.565 550.356C261.479 537.024 256.615 522.284 254.408 504.754L196.732 504.512C187.015 504.488 176.734 503.792 167.076 504.638ZM843.848 504.761C819.517 504.935 795.181 505.525 770.853 505.509C768.465 525.692 759.981 544.181 743.727 556.954C731.899 566.249 718.293 570.315 703.687 572.72L703.646 658.248L730.375 658.201L806.691 658.125C810.021 636.648 818.873 619.647 836.597 606.624C847.617 598.528 859.862 595.125 873.346 594.076Q873.24 571.73 873.364 549.387C873.409 540.556 874.356 531.021 872.861 522.317C872.121 518.015 870.51 513.133 867.323 510.034C861.152 504.033 851.777 504.581 843.848 504.761Z"/>
	<path fill="#FDEFFE" transform="matrix(1.30664 0 0 1.30664 -0.000488281 0)" d="M550.656 459.6C552.48 467.709 551.146 477.473 551.085 485.823C551.017 494.998 551.313 504.174 551.217 513.349C551.172 517.696 550.37 523.041 551.142 527.207L549.903 525.786C548.587 521.854 548.315 471.537 549.504 468.096C550.403 465.374 550.035 462.403 550.656 459.6Z"/>
	<path fill="#FBFAFB" transform="matrix(1.30664 0 0 1.30664 -0.000488281 0)" d="M117.547 442.261C116.409 439.501 115.864 436.05 115.699 433.064C115.157 423.19 118.747 413.842 125.412 406.591Q126.059 405.883 126.74 405.209Q127.421 404.534 128.134 403.894Q128.848 403.254 129.593 402.651Q130.338 402.047 131.112 401.482Q131.885 400.916 132.686 400.389Q133.487 399.863 134.314 399.377Q135.14 398.891 135.989 398.447Q136.839 398.002 137.709 397.601Q138.58 397.2 139.469 396.842Q140.359 396.484 141.265 396.171Q142.171 395.859 143.091 395.591Q144.012 395.324 144.945 395.102Q145.877 394.881 146.82 394.707Q147.762 394.532 148.712 394.405Q149.662 394.277 150.618 394.197Q151.573 394.117 152.531 394.085C161.567 393.741 170.769 396.528 177.503 402.696C164.579 397.68 153.217 393.47 139.693 399.319C130.308 403.378 122.715 411.92 119.062 421.39C117.424 425.637 116.76 429.819 116.755 434.373C117.063 436.971 117.53 439.646 117.547 442.261Z"/>
	<path fill="#FBFAFB" transform="matrix(1.30664 0 0 1.30664 -0.000488281 0)" d="M847.364 457.753C841.482 453.059 837.577 445.556 836.147 438.241Q835.964 437.307 835.828 436.365Q835.692 435.423 835.603 434.475Q835.515 433.528 835.475 432.577Q835.435 431.626 835.443 430.674Q835.451 429.722 835.507 428.772Q835.563 427.822 835.667 426.876Q835.771 425.93 835.923 424.99Q836.075 424.051 836.274 423.12Q836.473 422.189 836.719 421.27Q836.964 420.35 837.257 419.444Q837.549 418.539 837.886 417.649Q838.223 416.759 838.605 415.887Q838.987 415.015 839.413 414.164Q839.839 413.313 840.307 412.484Q840.775 411.655 841.284 410.851Q841.794 410.047 842.343 409.27C847.888 401.282 857.028 395.295 866.658 393.674Q867.513 393.532 868.374 393.432Q869.235 393.331 870.1 393.272Q870.964 393.213 871.831 393.195Q872.698 393.178 873.564 393.202Q874.43 393.226 875.295 393.292Q876.159 393.357 877.019 393.465Q877.879 393.572 878.733 393.72Q879.587 393.868 880.433 394.057Q881.279 394.246 882.115 394.476Q882.95 394.706 883.774 394.975Q884.598 395.244 885.408 395.553Q886.218 395.862 887.012 396.209Q887.806 396.556 888.583 396.941Q889.359 397.326 890.116 397.748Q890.874 398.169 891.61 398.627Q892.346 399.085 893.059 399.577C880.346 395.682 868.888 394.293 856.65 400.868C847.872 405.584 841.737 413.263 838.989 422.837C838.115 425.881 837.481 429.172 837.467 432.341C837.706 442.338 841.53 449.854 847.364 457.753Z"/>
	<path fill="#FBFAFB" transform="matrix(1.30664 0 0 1.30664 -0.000488281 0)" d="M475.868 453.282C485.066 452.58 545.26 450.994 549.244 454.081C550.77 455.263 550.601 457.893 550.656 459.6C550.035 462.403 550.403 465.374 549.504 468.096C549.37 464.737 549.878 458.199 546.574 456.022C545.314 455.192 543.063 455.129 541.611 455.07C536.96 454.88 532.282 455.385 527.622 455.359C518.616 455.31 484.856 453.907 479.525 455.658C478.807 455.893 478.276 456.281 477.709 456.763C475.178 463.359 475.758 520.416 476.945 528.94C485.784 529.172 544.996 530.856 548.381 527.712C548.959 527.176 549.446 526.428 549.903 525.786L551.142 527.207C550.081 529.251 548.889 530.74 546.623 531.481C542.886 532.702 477.116 531.79 475.345 530.942C472.141 523.478 473.167 469.872 474.337 459.425C474.58 457.262 475.089 455.313 475.868 453.282Z"/>
	<path fill="#FBFAFB" transform="matrix(1.30664 0 0 1.30664 -0.000488281 0)" d="M233.487 869.708C233.481 861.269 232.304 799.408 234.446 796.284C237.123 794.833 240.215 794.289 243.229 794.023C248.13 793.59 299.919 793.291 302.71 794.149C304.457 794.686 306.889 795.969 307.719 797.699C308.596 799.525 308.69 802.214 308.771 804.241C309.104 812.572 308.513 821.089 308.57 829.45C308.649 840.973 309.346 852.885 308.653 864.371C308.532 866.386 308.249 868.605 307.431 870.471C306.537 872.513 305.157 873.176 303.205 873.968C304.16 872.466 304.856 871.164 305.169 869.391C307.097 858.495 306.401 808.373 304.835 797.289C297.022 795.412 244.24 795.568 237.26 797.796C236.146 799.252 236.091 801.372 235.976 803.145C235.197 815.113 236.073 827.645 236.012 839.676C235.971 847.805 234.511 860.588 235.938 868.069C236.425 870.621 237.623 872.034 239.309 873.962C236.758 872.989 235.26 871.739 233.487 869.708Z"/>
	<path fill="#D7312F" transform="matrix(1.30664 0 0 1.30664 -0.000488281 0)" d="M898.113 403.455C904.511 407.602 908.648 416.143 910.185 423.408C912.384 433.8 910.698 444.129 904.77 452.996Q904.259 453.771 903.711 454.52Q903.162 455.269 902.577 455.989Q901.992 456.71 901.372 457.401Q900.752 458.092 900.099 458.751Q899.445 459.41 898.76 460.036Q898.075 460.662 897.359 461.253Q896.643 461.845 895.899 462.4Q895.155 462.955 894.385 463.472Q893.614 463.989 892.819 464.468Q892.023 464.947 891.205 465.385Q890.387 465.824 889.548 466.221Q888.709 466.619 887.852 466.974Q886.994 467.329 886.12 467.642Q885.246 467.954 884.358 468.223Q883.469 468.491 882.568 468.715Q881.668 468.94 880.757 469.119C871.358 470.96 861.771 468.583 853.896 463.269C851.518 461.664 849.447 459.716 847.364 457.753C841.53 449.854 837.706 442.338 837.467 432.341C843.246 435.929 844.956 444.693 854.562 449.759C862.343 453.862 872.153 454.693 880.513 451.983Q881.308 451.727 882.09 451.431Q882.872 451.136 883.638 450.802Q884.404 450.467 885.152 450.095Q885.901 449.723 886.63 449.314Q887.358 448.906 888.066 448.461Q888.774 448.016 889.458 447.537Q890.143 447.057 890.802 446.544Q891.462 446.031 892.095 445.486Q892.729 444.94 893.334 444.364Q893.939 443.788 894.515 443.182Q895.091 442.576 895.636 441.943Q896.181 441.309 896.693 440.649Q897.206 439.989 897.685 439.304Q898.163 438.619 898.608 437.911Q899.052 437.203 899.46 436.474Q899.868 435.745 900.24 434.996C904.033 427.328 904.44 419.027 901.396 411.03C900.528 408.749 899.14 406.674 898.393 404.364C898.295 404.062 898.206 403.758 898.113 403.455Z"/>
	<path fill="#EA8003" transform="matrix(1.30664 0 0 1.30664 -0.000488281 0)" d="M187.585 415.547C191.844 425.108 192.878 435.08 189.072 444.983Q188.727 445.882 188.337 446.762Q187.947 447.642 187.513 448.501Q187.078 449.36 186.601 450.196Q186.124 451.033 185.605 451.844Q185.086 452.654 184.527 453.438Q183.968 454.222 183.37 454.976Q182.772 455.73 182.136 456.453Q181.501 457.176 180.829 457.866Q180.158 458.556 179.452 459.211Q178.747 459.866 178.009 460.485Q177.272 461.104 176.504 461.684Q175.736 462.264 174.939 462.805Q174.143 463.346 173.32 463.846Q172.497 464.345 171.65 464.803Q170.803 465.26 169.934 465.674Q169.065 466.088 168.176 466.458C158.578 470.559 148.421 470.437 138.805 466.444C130.02 462.796 122.528 455.621 118.984 446.729C118.403 445.27 117.899 443.793 117.547 442.261C117.53 439.646 117.063 436.971 116.755 434.373C117.355 433.723 118.016 433.445 118.789 433.03C119.895 433.189 120.336 433.237 121.218 433.992C125.729 437.851 126.636 441.268 133.161 445.093C141.2 449.804 150.981 450.682 159.928 448.342C169.059 445.954 179.115 438.408 182.503 429.397C184.158 424.998 184.864 419.974 187.338 415.935C187.418 415.804 187.503 415.677 187.585 415.547Z"/>
	<path fill="#F79705" transform="matrix(1.30664 0 0 1.30664 -0.000488281 0)" d="M116.755 434.373C116.76 429.819 117.424 425.637 119.062 421.39C122.715 411.92 130.308 403.378 139.693 399.319C153.217 393.47 164.579 397.68 177.503 402.696C182.078 406.447 184.988 410.211 187.585 415.547C187.503 415.677 187.418 415.804 187.338 415.935C184.864 419.974 184.158 424.998 182.503 429.397C179.115 438.408 169.059 445.954 159.928 448.342C150.981 450.682 141.2 449.804 133.161 445.093C126.636 441.268 125.729 437.851 121.218 433.992C120.336 433.237 119.895 433.189 118.789 433.03C118.016 433.445 117.355 433.723 116.755 434.373Z"/>
	<path fill="#F15650" transform="matrix(1.30664 0 0 1.30664 -0.000488281 0)" d="M837.467 432.341C837.481 429.172 838.115 425.881 838.989 422.837C841.737 413.263 847.872 405.584 856.65 400.868C868.888 394.293 880.346 395.682 893.059 399.577C894.892 400.739 896.729 401.748 898.113 403.455C898.206 403.758 898.295 404.062 898.393 404.364C899.14 406.674 900.528 408.749 901.396 411.03C904.44 419.027 904.033 427.328 900.24 434.996Q899.868 435.745 899.46 436.474Q899.052 437.203 898.608 437.911Q898.163 438.619 897.685 439.304Q897.206 439.989 896.693 440.649Q896.18 441.309 895.636 441.943Q895.091 442.576 894.515 443.182Q893.939 443.788 893.334 444.364Q892.729 444.94 892.095 445.486Q891.462 446.031 890.802 446.544Q890.143 447.057 889.458 447.537Q888.774 448.016 888.066 448.461Q887.358 448.906 886.63 449.314Q885.901 449.723 885.152 450.095Q884.404 450.467 883.638 450.802Q882.872 451.136 882.09 451.431Q881.308 451.727 880.513 451.983C872.153 454.693 862.343 453.862 854.562 449.759C844.956 444.693 843.246 435.929 837.467 432.341Z"/>
	<path fill="#D7312F" transform="matrix(1.30664 0 0 1.30664 -0.000488281 0)" d="M569.797 846.34C574.811 863.677 574.263 881.51 565.422 897.543Q564.71 898.857 563.934 900.134Q563.158 901.411 562.318 902.647Q561.479 903.884 560.58 905.077Q559.68 906.27 558.721 907.416Q557.763 908.563 556.749 909.66Q555.734 910.757 554.667 911.803Q553.599 912.848 552.48 913.839Q551.361 914.829 550.194 915.763Q549.028 916.697 547.816 917.571Q546.604 918.445 545.35 919.257Q544.096 920.07 542.802 920.819Q541.509 921.568 540.18 922.251Q538.852 922.935 537.49 923.551Q536.129 924.167 534.739 924.715Q533.348 925.262 531.932 925.74Q530.516 926.217 529.078 926.623C512.451 931.28 496.15 929.663 481.088 921.059C477.082 918.77 473.06 915.986 469.859 912.64C476.36 907.713 482.851 902.64 488.905 897.168C493.504 893.012 498.27 887.533 503.435 884.217C503.946 884.447 504.455 884.682 504.975 884.892C508.992 886.514 513.289 887.265 517.363 885.364C522.146 883.132 524.384 878.599 526.186 873.939C540.918 864.958 554.704 854.741 569.797 846.34Z"/>
	<path fill="#217D9A" transform="matrix(1.30664 0 0 1.30664 -0.000488281 0)" d="M891.28 666.86C898.668 663.94 931.668 658.655 940.528 657.86Q940.682 659.425 940.758 660.997Q940.834 662.568 940.833 664.141Q940.831 665.714 940.753 667.285Q940.674 668.856 940.518 670.421Q940.363 671.986 940.13 673.542Q939.897 675.097 939.588 676.639Q939.279 678.182 938.895 679.707Q938.51 681.232 938.051 682.737Q937.592 684.241 937.059 685.721Q936.527 687.201 935.922 688.653Q935.317 690.105 934.642 691.526Q933.966 692.946 933.222 694.332Q932.477 695.718 931.665 697.065Q930.854 698.412 929.976 699.718Q929.099 701.023 928.159 702.284Q927.218 703.545 926.217 704.758C915.914 717.295 900.007 725.905 883.838 727.415Q882.227 727.558 880.612 727.622Q878.996 727.686 877.379 727.671Q875.762 727.656 874.148 727.561Q872.534 727.466 870.926 727.292Q869.319 727.118 867.721 726.866Q866.124 726.613 864.542 726.283Q862.959 725.952 861.394 725.544Q859.83 725.136 858.287 724.652Q856.744 724.167 855.227 723.608Q853.71 723.048 852.222 722.415Q850.734 721.782 849.279 721.076Q847.825 720.37 846.406 719.594Q844.988 718.818 843.609 717.973Q842.23 717.128 840.895 716.217Q839.559 715.305 838.27 714.329Q836.981 713.353 835.741 712.315C833.581 710.495 831.061 708.212 829.441 705.893C836.694 701.367 848.213 690.091 854.677 683.901C858.517 680.224 862.488 675.678 867.198 673.156C868.423 674.309 869.88 675.423 871.374 676.196C874.451 677.789 878.03 678.25 881.351 677.179C886.574 675.494 889.048 671.499 891.28 666.86Z"/>
	<path fill="#FBFAFB" transform="matrix(1.30664 0 0 1.30664 -0.000488281 0)" d="M506.804 303.617Q507.648 303.495 508.496 303.41Q509.345 303.325 510.196 303.278Q511.047 303.231 511.9 303.221Q512.752 303.212 513.604 303.24Q514.456 303.268 515.307 303.334Q516.157 303.4 517.003 303.503Q517.849 303.607 518.69 303.748Q519.531 303.888 520.365 304.066Q521.199 304.244 522.024 304.459Q522.849 304.674 523.664 304.925Q524.479 305.175 525.281 305.462Q526.084 305.749 526.874 306.071Q527.663 306.393 528.438 306.75Q529.212 307.106 529.97 307.497Q530.728 307.888 531.468 308.311Q532.208 308.735 532.928 309.191C542.277 315.227 548.257 325.035 550.583 335.808Q550.791 336.734 550.954 337.669Q551.116 338.604 551.231 339.546Q551.347 340.488 551.416 341.435Q551.484 342.382 551.506 343.33Q551.527 344.279 551.502 345.228Q551.476 346.177 551.403 347.123Q551.331 348.069 551.211 349.011Q551.092 349.952 550.925 350.887Q550.759 351.821 550.547 352.746Q550.334 353.671 550.076 354.585Q549.818 355.498 549.515 356.397Q549.212 357.297 548.865 358.18Q548.517 359.063 548.127 359.928Q547.736 360.793 547.303 361.638Q546.869 362.482 546.395 363.304Q545.92 364.126 545.405 364.923C538.692 375.268 529.564 379.93 517.805 382.406C507.538 383.119 498.663 382.011 489.967 376.133C481.387 370.332 475.736 361.092 473.81 350.973C471.778 340.298 473.859 328.756 480.01 319.734C486.381 310.389 495.964 305.711 506.804 303.617Z"/>
	<path fill="#F79705" transform="matrix(1.30664 0 0 1.30664 -0.000488281 0)" d="M492.497 374.127C494.802 372.369 499.568 372.981 502.35 372.917C518.621 372.544 536.669 361.652 542.364 345.969C543.797 342.023 543.808 333.993 546.363 331.311C549.998 339.831 550.337 349.388 546.858 358.027C543.132 367.279 535.3 374.289 526.154 378.021C517.368 381.606 507.558 381.139 498.869 377.457C496.65 376.516 494.51 375.457 492.497 374.127Z"/>
	<path fill="#F1B609" transform="matrix(1.30664 0 0 1.30664 -0.000488281 0)" d="M492.497 374.127C486.088 370.193 481.485 364.268 478.722 357.314C475.028 348.013 474.963 337.185 479.041 327.998Q479.415 327.17 479.83 326.361Q480.244 325.552 480.699 324.764Q481.153 323.977 481.645 323.213Q482.137 322.448 482.667 321.71Q483.196 320.971 483.762 320.259Q484.327 319.547 484.927 318.864Q485.527 318.181 486.159 317.528Q486.792 316.875 487.456 316.255Q488.121 315.634 488.815 315.047Q489.509 314.46 490.231 313.908Q490.953 313.356 491.702 312.84Q492.45 312.324 493.223 311.846Q493.996 311.368 494.792 310.929Q495.588 310.489 496.404 310.089Q497.221 309.69 498.056 309.331Q498.891 308.972 499.743 308.655Q500.569 308.348 501.409 308.081Q502.249 307.815 503.101 307.59Q503.953 307.364 504.816 307.181Q505.678 306.998 506.548 306.857Q507.418 306.716 508.294 306.618Q509.169 306.519 510.049 306.464Q510.929 306.408 511.81 306.396Q512.691 306.383 513.572 306.414Q514.453 306.445 515.331 306.518Q516.209 306.592 517.083 306.708Q517.957 306.824 518.823 306.983Q519.69 307.142 520.549 307.343Q521.407 307.544 522.254 307.787Q523.101 308.029 523.936 308.313Q524.77 308.597 525.59 308.921Q526.409 309.245 527.212 309.609C536.474 313.833 542.926 321.884 546.363 331.311C543.808 333.993 543.797 342.023 542.364 345.969C536.669 361.652 518.621 372.544 502.35 372.917C499.568 372.981 494.802 372.369 492.497 374.127Z"/>
	<path fill="#F1B609" transform="matrix(1.30664 0 0 1.30664 -0.000488281 0)" d="M758.339 475.379C765.105 491.887 765.435 508.809 758.509 525.387Q757.911 526.853 757.241 528.288Q756.572 529.723 755.832 531.123Q755.093 532.523 754.285 533.885Q753.477 535.247 752.603 536.568Q751.729 537.888 750.791 539.164Q749.853 540.44 748.853 541.668Q747.854 542.896 746.795 544.073Q745.735 545.25 744.62 546.373Q743.504 547.497 742.334 548.564Q741.164 549.631 739.943 550.639Q738.722 551.647 737.452 552.594Q736.183 553.54 734.868 554.423Q733.554 555.306 732.197 556.123Q730.841 556.94 729.446 557.689Q728.051 558.438 726.62 559.118Q725.19 559.797 723.728 560.405C708.213 566.711 691.491 566.827 676.042 560.229C664.632 555.356 655.196 547.882 647.618 538.092C661.752 530.45 676.926 524.211 690.033 514.802C692.562 516.264 695.533 517.311 698.487 517.084C703.604 516.69 707.661 512.298 710.759 508.601C715.054 506.249 719.47 504.212 723.681 501.676C735.712 494.433 748.142 485.009 758.339 475.379Z"/>
	<path fill="#49A806" transform="matrix(1.30664 0 0 1.30664 -0.000488281 0)" d="M387.217 478.588C393.512 494.314 392.947 511.26 386.355 526.841C379.422 543.226 366.481 555.326 350.055 561.965C333.457 568.675 315.532 567.653 299.197 560.628C290.455 556.87 282.311 550.904 276.627 543.213C283.42 538.705 290.237 534.255 296.918 529.58C303.783 524.776 310.643 519.483 318.09 515.625C320.967 517.169 324.618 518.315 327.912 517.907C333.113 517.262 336.584 513.429 339.691 509.596C345.896 505.06 352.636 501.03 359.04 496.755C368.303 490.571 377.489 484.021 387.217 478.588Z"/>
	<path fill="#7FC945" transform="matrix(1.30664 0 0 1.30664 -0.000488281 0)" d="M574.381 150.607C577.343 169.557 574.149 186.536 562.716 202.22Q561.803 203.492 560.827 204.716Q559.851 205.94 558.814 207.114Q557.778 208.287 556.683 209.407Q555.588 210.526 554.439 211.589Q553.289 212.652 552.087 213.655Q550.885 214.659 549.634 215.6Q548.383 216.541 547.086 217.418Q545.789 218.296 544.449 219.106Q543.11 219.916 541.731 220.658Q540.352 221.4 538.937 222.071Q537.523 222.742 536.076 223.341Q534.63 223.94 533.155 224.465Q531.68 224.99 530.18 225.44Q528.68 225.89 527.16 226.263Q525.639 226.637 524.102 226.933Q522.564 227.23 521.014 227.448Q519.424 227.685 517.825 227.842Q516.226 227.999 514.621 228.076Q513.015 228.153 511.408 228.15Q509.801 228.147 508.196 228.063Q506.591 227.98 504.993 227.816Q503.394 227.652 501.806 227.409Q500.217 227.166 498.643 226.844Q497.068 226.521 495.512 226.121Q493.956 225.72 492.421 225.242Q490.887 224.764 489.378 224.211Q487.87 223.657 486.391 223.028Q484.912 222.4 483.466 221.698Q482.02 220.996 480.611 220.223Q479.202 219.45 477.834 218.608Q476.465 217.765 475.14 216.856Q473.816 215.946 472.538 214.971C468.067 211.601 464.58 207.594 461.185 203.173Q482.391 189.084 503.389 174.686C505.862 175.871 508.84 176.515 511.58 176.357C515.646 176.123 519.344 174.378 521.96 171.23C525.01 167.56 525.594 163.47 525.295 158.855C530.529 155.526 563.672 154.673 574.381 150.607Z"/>
	<path fill="#7FC945" transform="matrix(1.30664 0 0 1.30664 -0.000488281 0)" d="M211.324 651.728C213.421 671.343 211.239 689.243 198.412 705.062C187.116 718.993 171.735 726.718 153.984 728.445C136.564 730.139 119.917 724.589 106.538 713.359C101.944 709.504 97.7449 704.766 94.4458 699.763C99.5944 697.083 104.497 693.715 109.418 690.636C118.504 684.952 127.561 679.396 136.04 672.814C137.816 674.484 139.663 675.753 141.948 676.647C145.283 677.951 148.838 678.014 152.118 676.492C156.775 674.332 158.987 670.342 160.648 665.753C165.065 664.191 170.631 663.726 175.274 662.775C187.73 660.222 199.763 657.156 211.324 651.728Z"/>
	<path fill="#7FC945" transform="matrix(1.30664 0 0 1.30664 -0.000488281 0)" d="M555.902 627.17C566.728 638.838 572.761 653.65 572.225 669.668C571.72 684.768 565.805 700.641 554.6 711.092Q553.452 712.162 552.251 713.173Q551.051 714.185 549.802 715.135Q548.553 716.086 547.258 716.973Q545.963 717.86 544.625 718.681Q543.287 719.502 541.911 720.256Q540.534 721.01 539.121 721.694Q537.708 722.378 536.263 722.991Q534.818 723.604 533.345 724.144Q531.871 724.684 530.372 725.15Q528.873 725.617 527.353 726.007Q525.833 726.398 524.295 726.713Q522.757 727.027 521.206 727.265Q519.654 727.503 518.093 727.663Q516.531 727.823 514.964 727.905Q513.396 727.987 511.826 727.991Q510.257 727.994 508.689 727.92C495.776 727.366 480.875 722.449 471.729 712.954C482.509 702.869 492.374 691.498 502.774 680.988C520.523 663.052 538.707 645.655 555.902 627.17Z"/>
	<path fill="#F15650" transform="matrix(1.30664 0 0 1.30664 -0.000488281 0)" d="M239.309 873.962C237.623 872.034 236.425 870.621 235.938 868.069C234.511 860.588 235.971 847.805 236.012 839.676C236.073 827.645 235.197 815.113 235.976 803.145C236.091 801.372 236.146 799.252 237.26 797.796C244.24 795.568 297.022 795.412 304.835 797.289C306.401 808.373 307.097 858.495 305.169 869.391C304.856 871.164 304.16 872.466 303.205 873.968C281.972 872.968 260.581 874.031 239.309 873.962Z"/>
	<path fill="#4BAD9C" transform="matrix(1.30664 0 0 1.30664 -0.000488281 0)" d="M476.945 528.94C475.758 520.416 475.178 463.359 477.709 456.763C478.276 456.281 478.807 455.893 479.525 455.658C484.856 453.907 518.616 455.31 527.622 455.359C532.282 455.385 536.96 454.88 541.611 455.07C543.063 455.129 545.314 455.192 546.574 456.022C549.878 458.199 549.37 464.737 549.504 468.096C548.315 471.537 548.587 521.854 549.903 525.786C549.446 526.428 548.959 527.176 548.381 527.712C544.996 530.856 485.784 529.172 476.945 528.94Z"/>
	<path fill="#FBFAFB" transform="matrix(1.30664 0 0 1.30664 -0.000488281 0)" d="M668.828 189.713C678.945 188.931 689.263 189.978 699.411 189.977C708.085 189.975 716.8 189.039 725.468 189.647C727.918 189.819 731.632 190.057 733.585 191.587C735.058 192.743 735.406 196.975 735.551 198.838C736.383 209.502 735.469 220.732 735.494 231.456C735.514 240.01 736.432 252.558 735.641 260.614C735.441 262.657 734.945 264.925 733.428 266.417C732.162 267.662 730.712 267.698 729.033 267.824C719.375 268.339 709.677 267.91 700.011 268.023C691.1 268.128 682.107 268.817 673.21 268.266C670.742 268.113 667.514 267.863 665.32 266.728C663.756 265.919 663.309 264.939 662.914 263.302C660.758 254.388 662.367 230.904 662.385 220.762C662.397 213.698 661.72 206.514 662.162 199.466C662.29 197.425 662.409 194.053 663.712 192.415C665.069 190.709 666.752 190.086 668.828 189.713Z"/>
	<path fill="#F15650" transform="matrix(1.30664 0 0 1.30664 -0.000488281 0)" d="M667.825 192.508L705.46 192.473C711.957 192.467 718.896 191.927 725.328 192.73C728.245 193.095 731.385 193.723 733.239 196.177C734.177 200.994 734.953 259.365 733.86 263.135C733.442 264.576 732.364 265.164 731.176 265.924C715.743 267.225 699.932 266.517 684.459 266.123C679.011 265.984 672.621 266.449 667.325 265.288C665.028 262.383 665.252 254.335 665.146 250.731C664.89 242.027 665.446 233.326 665.438 224.624C665.429 215.321 663.931 204.924 665.813 195.828C666.106 194.413 666.871 193.521 667.825 192.508Z"/>
	<path fill="#48E374" transform="matrix(1.30664 0 0 1.30664 -0.000488281 0)" d="M471.729 712.954C459.933 701.536 452.642 686.125 452.454 669.579C452.278 654.048 458.799 638.149 469.718 627.106C481.14 615.556 496.088 609.017 512.381 609.047Q513.893 609.048 515.404 609.124Q516.914 609.199 518.419 609.349Q519.924 609.499 521.42 609.722Q522.916 609.946 524.398 610.243Q525.881 610.54 527.348 610.909Q528.814 611.279 530.261 611.72Q531.707 612.161 533.13 612.673Q534.553 613.185 535.95 613.767Q537.346 614.348 538.712 614.997Q540.077 615.647 541.41 616.363Q542.742 617.078 544.037 617.859Q545.333 618.639 546.588 619.483Q547.843 620.326 549.056 621.23Q550.268 622.134 551.434 623.097Q552.601 624.06 553.718 625.078Q554.836 626.097 555.902 627.17C538.707 645.655 520.523 663.052 502.774 680.988C492.374 691.498 482.509 702.869 471.729 712.954Z"/>
	<path fill="#FBFAFB" transform="matrix(1.30664 0 0 1.30664 -0.000488281 0)" d="M293.307 188.712C300.161 188.139 353.414 187.706 358.615 188.979C359.99 189.316 361.067 190.364 361.724 191.615C363.57 195.131 363.453 260.208 361.842 263.843C360.952 265.85 359.545 266.485 357.67 267.325C347.612 268.047 298.067 268.907 291.083 266.157C290.083 265.763 288.928 265.122 288.54 264.092C286.746 259.329 288.158 225.943 288.08 217.871C288.015 211.256 287.175 204.463 287.567 197.87C287.684 195.909 288.003 193.147 289.075 191.45C290.206 189.658 291.378 189.208 293.307 188.712Z"/>
	<path fill="#F15650" transform="matrix(1.30664 0 0 1.30664 -0.000488281 0)" d="M298.776 191.166C305.709 190.742 354.667 190.166 358.812 191.751C359.739 193.029 360.13 194.143 360.449 195.694C362.092 203.69 361.014 221.348 360.946 230.266C360.871 240.238 361.374 250.67 360.528 260.571C360.421 261.829 360.227 262.881 359.443 263.901C358.178 265.549 354.642 265.561 352.725 265.77C346.468 265.986 340.134 265.517 333.862 265.49C319.425 265.428 305.037 265.417 290.605 264.993C290.22 253.126 288.552 201.79 291.142 193.605C292.909 191.439 296.186 191.488 298.776 191.166Z"/>
	<path fill="#FBFAFB" transform="matrix(1.30664 0 0 1.30664 -0.000488281 0)" d="M780.446 792.733C783.436 792.801 788.569 792.482 791.053 794.338C792.408 795.351 792.451 796.804 792.662 798.362C794.494 811.876 793.098 826.614 793.045 840.251C793.014 848.038 793.847 856.224 793.072 863.962C792.859 866.085 792.243 871.039 790.583 872.408C788.317 874.277 733.278 873.59 725.759 873.75C723.621 873.708 721.4 873.74 719.282 873.438C717.298 873.156 714.932 872.371 713.902 870.498C711.202 865.591 712.455 811.415 713.21 801.888C713.404 799.437 713.896 797.113 714.614 794.762L715.476 794.339L715.108 793.976C721.18 791.716 769.353 793.126 780.446 792.733Z"/>
	<path fill="#F1B609" transform="matrix(1.30664 0 0 1.30664 -0.000488281 0)" d="M725.42 795.72Q746.367 796.226 767.319 795.918C773.062 795.841 778.933 795.171 784.659 795.485C786.529 795.588 788.119 795.83 789.774 796.73C790.783 799.344 791.004 802.315 791.173 805.095C791.731 814.275 791.08 823.626 791.02 832.823C790.95 843.385 793.071 860.597 789.884 870.169C787.602 872.484 784.65 872.128 781.625 872.255C772.305 872.724 762.602 872.101 753.238 872.091C742.927 872.08 732.289 872.685 722.015 871.974C720.285 871.854 717.858 871.739 716.506 870.676L717.098 870.348L716.455 870.585C716.029 869.043 715.775 867.493 715.593 865.907C715.037 861.072 715.187 798.618 716.454 797.347C718.211 795.584 723.036 795.869 725.42 795.72Z"/>
	<path fill="#B7E972" transform="matrix(1.30664 0 0 1.30664 -0.000488281 0)" d="M461.185 203.173C456.636 196.861 452.892 189.916 450.639 182.453Q450.174 180.931 449.787 179.388Q449.399 177.845 449.088 176.285Q448.778 174.725 448.546 173.151Q448.314 171.577 448.161 169.993Q448.008 168.41 447.934 166.82Q447.86 165.231 447.866 163.64Q447.871 162.049 447.957 160.46Q448.042 158.872 448.206 157.289Q448.37 155.707 448.614 154.135Q448.857 152.562 449.178 151.004Q449.5 149.446 449.899 147.906Q450.298 146.366 450.773 144.847Q451.248 143.329 451.799 141.837Q452.349 140.344 452.974 138.881Q453.598 137.417 454.295 135.987Q454.992 134.557 455.759 133.163C463.898 118.158 477.158 106.955 493.662 102.224C510.617 97.3622 527.856 99.1969 543.231 107.826C560.208 117.356 569.204 132.265 574.381 150.607C563.672 154.673 530.529 155.526 525.295 158.855C525.594 163.47 525.01 167.56 521.96 171.23C519.344 174.378 515.646 176.123 511.58 176.357C508.84 176.515 505.862 175.871 503.389 174.686Q482.391 189.084 461.185 203.173Z"/>
	<path fill="#FBFAFB" transform="matrix(1.30664 0 0 1.30664 -0.000488281 0)" d="M503.389 174.686C501.476 173.095 499.834 171.415 498.58 169.243C496.441 165.537 495.722 161.286 497.033 157.164Q497.245 156.475 497.526 155.81Q497.807 155.146 498.153 154.513Q498.499 153.88 498.907 153.285Q499.315 152.69 499.78 152.139Q500.246 151.588 500.765 151.087Q501.283 150.586 501.85 150.139Q502.416 149.692 503.024 149.305Q503.633 148.917 504.277 148.593C507.651 146.913 511.697 146.552 515.264 147.831C520.626 149.753 523.004 154.035 525.295 158.855C525.594 163.47 525.01 167.56 521.96 171.23C519.344 174.378 515.646 176.123 511.58 176.357C508.84 176.515 505.862 175.871 503.389 174.686Z"/>
	<path fill="#F15650" transform="matrix(1.30664 0 0 1.30664 -0.000488281 0)" d="M469.859 912.64C463.791 906.818 458.591 900.113 455.09 892.438C448.387 877.739 448.044 860.041 453.821 844.984C459.815 829.361 471.13 818.057 486.4 811.399C501.606 804.77 518.159 803.865 533.701 810.001C551.222 816.919 562.4 829.305 569.797 846.34C554.704 854.741 540.918 864.958 526.186 873.939C524.384 878.599 522.146 883.132 517.363 885.364C513.289 887.265 508.992 886.514 504.975 884.892C504.455 884.682 503.946 884.447 503.435 884.217C498.27 887.533 493.504 893.012 488.905 897.168C482.851 902.64 476.36 907.713 469.859 912.64Z"/>
	<path fill="#F19B9B" transform="matrix(1.30664 0 0 1.30664 -0.000488281 0)" d="M503.435 884.217C500.599 881.31 498.214 878.101 497.457 874.022Q497.34 873.383 497.287 872.736Q497.233 872.088 497.244 871.439Q497.255 870.789 497.33 870.144Q497.405 869.499 497.543 868.864Q497.682 868.23 497.882 867.612Q498.082 866.994 498.342 866.399Q498.602 865.803 498.92 865.237Q499.238 864.67 499.61 864.138Q500.029 863.526 500.506 862.958Q500.983 862.39 501.513 861.871Q502.043 861.352 502.621 860.887Q503.199 860.422 503.82 860.016Q504.441 859.609 505.098 859.265Q505.755 858.921 506.443 858.643Q507.13 858.365 507.842 858.155Q508.553 857.945 509.282 857.805C513.026 857.118 516.987 857.84 520.073 860.128C524.74 863.588 525.46 868.593 526.186 873.939C524.384 878.599 522.146 883.132 517.363 885.364C513.289 887.265 508.992 886.514 504.975 884.892C504.455 884.682 503.946 884.447 503.435 884.217Z"/>
	<path fill="#B7E972" transform="matrix(1.30664 0 0 1.30664 -0.000488281 0)" d="M94.4458 699.763C91.3127 695.127 88.8672 689.807 87.0157 684.539C81.4726 668.768 82.2477 652.153 89.4931 637.074C96.9533 621.547 109.862 609.668 126.201 604.043C142.985 598.264 160.247 599.276 176.131 607.184C195.512 616.833 204.695 631.773 211.324 651.728C199.763 657.156 187.73 660.222 175.274 662.775C170.631 663.726 165.065 664.191 160.648 665.753C158.987 670.342 156.775 674.332 152.118 676.492C148.838 678.014 145.283 677.951 141.948 676.647C139.663 675.753 137.816 674.484 136.04 672.814C127.561 679.396 118.504 684.952 109.418 690.636C104.497 693.715 99.5944 697.083 94.4458 699.763Z"/>
	<path fill="#FBFAFB" transform="matrix(1.30664 0 0 1.30664 -0.000488281 0)" d="M136.04 672.814C134.871 670.529 133.708 668.335 133.315 665.759C132.719 661.842 133.596 657.955 136.056 654.82Q136.475 654.286 136.943 653.796Q137.412 653.306 137.927 652.864Q138.442 652.423 138.997 652.033Q139.553 651.644 140.144 651.312Q140.735 650.979 141.356 650.706Q141.977 650.432 142.621 650.221Q143.266 650.01 143.928 649.864Q144.591 649.717 145.264 649.636Q145.906 649.56 146.553 649.548Q147.2 649.536 147.844 649.588Q148.489 649.641 149.125 649.757Q149.761 649.874 150.383 650.053Q151.004 650.233 151.604 650.473Q152.205 650.713 152.778 651.013Q153.352 651.312 153.892 651.666Q154.433 652.021 154.936 652.428C159.198 655.91 160.003 660.628 160.648 665.753C158.987 670.342 156.775 674.332 152.118 676.492C148.838 678.014 145.283 677.951 141.948 676.647C139.663 675.753 137.816 674.484 136.04 672.814Z"/>
	<path fill="#F6D408" transform="matrix(1.30664 0 0 1.30664 -0.000488281 0)" d="M647.618 538.092Q644.835 534.114 642.544 529.833Q641.819 528.493 641.162 527.119Q640.506 525.744 639.918 524.338Q639.331 522.933 638.815 521.499Q638.299 520.066 637.855 518.609Q637.411 517.151 637.041 515.674Q636.671 514.196 636.375 512.702Q636.079 511.207 635.858 509.7Q635.637 508.193 635.492 506.676Q635.347 505.16 635.278 503.638Q635.209 502.116 635.216 500.592Q635.223 499.069 635.307 497.548Q635.39 496.027 635.549 494.512Q635.709 492.997 635.944 491.492Q636.179 489.986 636.489 488.495Q636.799 487.003 637.183 485.529Q637.568 484.055 638.025 482.602Q638.502 481.057 639.054 479.538Q639.607 478.018 640.234 476.528Q640.86 475.038 641.56 473.58Q642.26 472.123 643.03 470.701Q643.801 469.28 644.641 467.899Q645.481 466.517 646.388 465.179Q647.295 463.841 648.267 462.549Q649.239 461.257 650.274 460.015Q651.308 458.772 652.403 457.582Q653.498 456.393 654.65 455.258Q655.802 454.124 657.009 453.048Q658.215 451.972 659.474 450.957Q660.732 449.942 662.039 448.99Q663.346 448.038 664.698 447.152Q666.05 446.266 667.445 445.448Q668.839 444.629 670.272 443.881Q671.66 443.143 673.083 442.475Q674.507 441.807 675.962 441.212Q677.417 440.617 678.9 440.096Q680.383 439.574 681.891 439.128Q683.398 438.682 684.926 438.312Q686.454 437.942 687.999 437.65Q689.544 437.357 691.101 437.143Q692.659 436.928 694.225 436.792Q695.791 436.656 697.362 436.599Q698.933 436.542 700.505 436.564Q702.077 436.586 703.646 436.687Q705.215 436.788 706.777 436.967Q708.339 437.147 709.89 437.405Q711.441 437.663 712.976 437.999Q714.512 438.334 716.029 438.747Q717.547 439.159 719.041 439.647C737.463 445.668 749.746 458.363 758.339 475.379C748.142 485.009 735.712 494.433 723.681 501.676C719.47 504.212 715.054 506.249 710.759 508.601C707.661 512.298 703.604 516.69 698.487 517.084C695.533 517.311 692.562 516.264 690.033 514.802C676.926 524.211 661.752 530.45 647.618 538.092Z"/>
	<path fill="#FBFAFB" transform="matrix(1.30664 0 0 1.30664 -0.000488281 0)" d="M690.033 514.802C689.119 513.803 688.198 512.79 687.427 511.673C685.063 508.25 683.222 504.196 684.132 499.958C684.869 496.528 687.168 493.654 690.088 491.786Q690.757 491.361 691.467 491.007Q692.176 490.653 692.918 490.374Q693.66 490.094 694.426 489.892Q695.193 489.69 695.976 489.567Q696.76 489.445 697.551 489.403Q698.343 489.361 699.135 489.401Q699.927 489.44 700.71 489.561Q701.494 489.681 702.261 489.881C705.581 490.713 708.607 492.646 710.27 495.701C712.535 499.865 711.915 504.249 710.759 508.601C707.661 512.298 703.604 516.69 698.487 517.084C695.533 517.311 692.562 516.264 690.033 514.802Z"/>
	<path fill="#3C91AF" transform="matrix(1.30664 0 0 1.30664 -0.000488281 0)" d="M829.441 705.893Q828.147 704.428 826.944 702.887Q825.74 701.346 824.633 699.735Q823.525 698.124 822.517 696.449Q821.509 694.774 820.604 693.041Q819.7 691.308 818.902 689.523Q818.104 687.739 817.416 685.909Q816.727 684.079 816.151 682.211Q815.575 680.343 815.113 678.443Q814.741 676.933 814.446 675.406Q814.151 673.879 813.932 672.339Q813.714 670.799 813.573 669.25Q813.432 667.701 813.369 666.148Q813.306 664.594 813.321 663.038Q813.336 661.483 813.428 659.931Q813.521 658.378 813.692 656.832Q813.862 655.287 814.11 653.751Q814.358 652.216 814.683 650.695Q815.007 649.174 815.407 647.671Q815.808 646.168 816.283 644.687Q816.758 643.206 817.307 641.751Q817.856 640.296 818.477 638.87Q819.098 637.444 819.79 636.051Q820.482 634.659 821.242 633.302Q822.003 631.946 822.831 630.629C832.045 615.906 845.941 606.047 862.882 602.29C879.768 598.545 895.968 601.443 910.496 610.784C927.596 621.778 936.338 638.387 940.528 657.86C931.668 658.655 898.668 663.94 891.28 666.86C889.048 671.499 886.574 675.494 881.351 677.179C878.03 678.25 874.451 677.789 871.374 676.196C869.88 675.423 868.423 674.309 867.198 673.156C862.488 675.678 858.517 680.224 854.677 683.901C848.213 690.091 836.694 701.367 829.441 705.893Z"/>
	<path fill="#FBFAFB" transform="matrix(1.30664 0 0 1.30664 -0.000488281 0)" d="M867.198 673.156C865.191 670.145 863.6 666.894 863.48 663.212C863.368 659.82 864.729 656.568 867.089 654.151Q867.603 653.631 868.167 653.165Q868.73 652.698 869.338 652.291Q869.945 651.883 870.59 651.538Q871.235 651.193 871.911 650.914Q872.587 650.635 873.288 650.425Q873.989 650.215 874.707 650.076Q875.425 649.937 876.153 649.87Q876.881 649.804 877.613 649.81C881.202 649.836 884.73 651.199 887.258 653.773C890.81 657.39 891.357 662.045 891.28 666.86C889.048 671.499 886.574 675.494 881.351 677.179C878.03 678.25 874.451 677.789 871.374 676.196C869.88 675.423 868.423 674.309 867.198 673.156Z"/>
	<path fill="#7FC945" transform="matrix(1.30664 0 0 1.30664 -0.000488281 0)" d="M276.627 543.213Q274.101 540.003 271.954 536.527Q269.807 533.052 268.067 529.356C260.508 513.457 259.099 495.769 265.094 479.122Q265.654 477.6 266.289 476.108Q266.923 474.616 267.63 473.156Q268.337 471.697 269.114 470.274Q269.892 468.851 270.738 467.468Q271.585 466.085 272.498 464.745Q273.411 463.405 274.389 462.111Q275.367 460.818 276.407 459.574Q277.448 458.33 278.548 457.139Q279.648 455.947 280.805 454.811Q281.962 453.675 283.173 452.597Q284.385 451.519 285.648 450.502Q286.91 449.485 288.222 448.531Q289.533 447.577 290.889 446.689Q292.246 445.8 293.644 444.979Q295.043 444.158 296.48 443.407Q297.917 442.656 299.389 441.976C315.288 434.663 332.769 434.191 349.113 440.309C367.597 447.227 379.273 460.958 387.217 478.588C377.489 484.021 368.303 490.571 359.04 496.755C352.636 501.03 345.896 505.06 339.691 509.596C336.584 513.429 333.113 517.262 327.912 517.907C324.618 518.315 320.967 517.169 318.09 515.625C310.643 519.483 303.783 524.776 296.918 529.58C290.237 534.255 283.42 538.705 276.627 543.213Z"/>
	<path fill="#E6F2C4" transform="matrix(1.30664 0 0 1.30664 -0.000488281 0)" d="M318.09 515.625Q317.298 514.812 316.552 513.957C313.767 510.724 312.024 506.241 312.538 501.944C312.994 498.126 315.161 494.741 318.254 492.501Q318.846 492.067 319.478 491.695Q320.111 491.323 320.777 491.016Q321.444 490.71 322.138 490.472Q322.833 490.235 323.547 490.068Q324.262 489.902 324.99 489.808Q325.718 489.715 326.451 489.695Q327.185 489.675 327.917 489.73Q328.648 489.784 329.371 489.912C332.774 490.52 335.953 492.29 337.931 495.175C341.021 499.684 340.561 504.53 339.691 509.596C336.584 513.429 333.113 517.262 327.912 517.907C324.618 518.315 320.967 517.169 318.09 515.625Z"/>
</svg>
